<?xml version="1.0" encoding="utf-8"?>
<!-- Generator: Adobe Illustrator 27.9.1, SVG Export Plug-In . SVG Version: 6.00 Build 0)  -->
<svg version="1.1" id="레이어_1" xmlns="http://www.w3.org/2000/svg" xmlns:xlink="http://www.w3.org/1999/xlink" x="0px"
	 y="0px" viewBox="0 0 120 121" style="enable-background:new 0 0 120 121;" xml:space="preserve">
<style type="text/css">
	.st0{fill-rule:evenodd;clip-rule:evenodd;fill:#144276;}
</style>
<g id="Group">
	<path id="Union" class="st0" d="M81.5,39h-42c-0.8,0-1.5,0.7-1.5,1.5v34v0V77c0,0.8,0.7,1.5,1.5,1.5h0c-0.8,0-1.5-0.7-1.5-1.5v-2.6
		h-4v2.2c0,2.4,2,4.4,4.4,4.4h44.2c2.4,0,4.4-2,4.4-4.4v-2.2h-4h0v-34C83,39.7,82.3,39,81.5,39z M40.9,74.5H80v2.2h0h0v-2.2h0V41.9
		H40.9V74.5z M65.2,76.6L65.2,76.6h-9.5c-0.6,0-1.1,0.5-1.1,1.1c0,0.3,0.1,0.5,0.3,0.7h0c0.2,0.2,0.5,0.4,0.8,0.4h9.5
		c0.3,0,0.6-0.1,0.8-0.4h0c0.2-0.2,0.3-0.5,0.3-0.7C66.3,77.1,65.9,76.6,65.2,76.6z M65,47.1l0.8,0.2c0.9,0.2,1.8,0.6,2.6,1.1
		c0.8,0.5,1.6,1.1,2.2,1.7c0.7,0.7,1.2,1.4,1.7,2.2c0.5,0.8,0.8,1.7,1.1,2.6l0,0.1v0c0.2,0.9,0.3,1.8,0.3,2.7c0,1-0.1,1.9-0.4,2.8
		l-0.2,0.8l-11.2-3L65,47.1z M66.2,49.2l-2.1,8l8,2.1c0.1-0.5,0.1-1,0.1-1.5c0-0.8-0.1-1.6-0.3-2.4l0-0.1v0
		c-0.2-0.7-0.5-1.5-0.9-2.1l0,0c-0.4-0.7-0.9-1.3-1.5-1.9c-0.6-0.6-1.2-1.1-1.9-1.5l0,0C67.2,49.6,66.7,49.3,66.2,49.2z M59.9,48.8
		c-1,0-1.9,0.1-2.8,0.4c-0.9,0.2-1.8,0.6-2.6,1.1c-0.8,0.5-1.6,1.1-2.2,1.7c-0.7,0.7-1.2,1.4-1.7,2.2l0,0c-0.5,0.8-0.8,1.7-1.1,2.6
		l0,0c-0.2,0.9-0.4,1.8-0.4,2.8s0.1,1.9,0.4,2.8l0,0c0.2,0.9,0.6,1.8,1.1,2.6c0.5,0.8,1.1,1.6,1.7,2.2c0.7,0.7,1.4,1.2,2.2,1.7l0,0
		c0.8,0.5,1.7,0.8,2.6,1.1l0,0c0.9,0.2,1.8,0.4,2.8,0.4s1.9-0.1,2.8-0.4l0,0c0.9-0.2,1.8-0.6,2.6-1.1c0.8-0.5,1.6-1.1,2.2-1.7
		c0.7-0.7,1.2-1.4,1.7-2.2l0,0c0.5-0.8,0.8-1.7,1.1-2.6l0.2-0.8L60.9,59l2.6-9.6l-0.8-0.2C61.8,48.9,60.9,48.8,59.9,48.8z
		 M59.1,59.4l0.7,0.2l-0.1,0.8l8.8,2.4c-0.2,0.5-0.4,1-0.7,1.4c-0.4,0.7-0.9,1.3-1.5,1.9c-0.6,0.6-1.2,1.1-1.9,1.5l0,0
		c-0.7,0.4-1.4,0.7-2.2,0.9c-0.8,0.2-1.5,0.3-2.4,0.3c-0.8,0-1.6-0.1-2.4-0.3c-0.8-0.2-1.5-0.5-2.2-0.9c-0.7-0.4-1.3-0.9-1.9-1.5
		c-0.6-0.6-1.1-1.2-1.5-1.9l0,0c-0.4-0.7-0.7-1.4-0.9-2.2c-0.2-0.8-0.3-1.5-0.3-2.4c0-0.8,0.1-1.6,0.3-2.4c0.2-0.8,0.5-1.5,0.9-2.2
		c0.4-0.7,0.9-1.3,1.5-1.9c0.6-0.6,1.2-1.1,1.9-1.5l0,0c0.7-0.4,1.4-0.7,2.2-0.9c0.8-0.2,1.5-0.3,2.4-0.3c0.5,0,1,0,1.6,0.1
		L59.1,59.4z"/>
</g>
</svg>
