<?xml version="1.0" encoding="utf-8"?>
<!-- Generator: Adobe Illustrator 27.9.1, SVG Export Plug-In . SVG Version: 6.00 Build 0)  -->
<svg version="1.1" id="레이어_1" xmlns="http://www.w3.org/2000/svg" xmlns:xlink="http://www.w3.org/1999/xlink" x="0px"
	 y="0px" viewBox="0 0 120 121" style="enable-background:new 0 0 120 121;" xml:space="preserve">
<style type="text/css">
	.st0{fill-rule:evenodd;clip-rule:evenodd;fill:#144276;}
</style>
<g id="Group">
	<g id="Group_2">
		<path id="Vector__x28_Stroke_x29_" class="st0" d="M64.6,45.9l0.8,0.2c0.9,0.2,1.7,0.6,2.5,1c0.8,0.5,1.5,1,2.1,1.6
			c0.6,0.6,1.2,1.3,1.6,2.1c0.5,0.8,0.8,1.6,1,2.5l0,0.1v0c0.2,0.8,0.3,1.7,0.3,2.6c0,0.9-0.1,1.8-0.3,2.7l-0.2,0.8l-10.7-2.9
			L64.6,45.9z M65.7,47.9l-2,7.6l7.6,2c0.1-0.5,0.1-1,0.1-1.5c0-0.8-0.1-1.5-0.3-2.3l0-0.1v0c-0.2-0.7-0.5-1.4-0.8-2l0,0
			c-0.4-0.7-0.9-1.3-1.4-1.8c-0.5-0.5-1.1-1-1.8-1.4l0,0C66.6,48.3,66.1,48.1,65.7,47.9z"/>
		<path id="Vector__x28_Stroke_x29__x5F_2" class="st0" d="M57,47.9c0.8-0.2,1.7-0.3,2.7-0.3c0.9,0,1.8,0.1,2.7,0.3l0.8,0.2
			l-2.5,9.2l9.2,2.5l-0.2,0.8c-0.2,0.9-0.6,1.7-1,2.5l0,0c-0.5,0.8-1,1.5-1.6,2.1c-0.6,0.6-1.3,1.2-2.1,1.6c-0.8,0.5-1.6,0.8-2.5,1
			l0,0c-0.8,0.2-1.7,0.3-2.7,0.3c-0.9,0-1.8-0.1-2.7-0.3l0,0c-0.9-0.2-1.7-0.6-2.5-1l0,0c-0.8-0.5-1.5-1-2.1-1.6
			c-0.6-0.6-1.2-1.4-1.6-2.1c-0.5-0.8-0.8-1.6-1-2.5l0,0c-0.2-0.8-0.3-1.7-0.3-2.7c0-0.9,0.1-1.8,0.3-2.7l0,0c0.2-0.9,0.6-1.7,1-2.5
			l0,0c0.5-0.8,1-1.5,1.6-2.1c0.6-0.6,1.4-1.2,2.1-1.6C55.3,48.4,56.1,48.1,57,47.9z M59.6,57.8l-0.7-0.2l2.2-8.4
			c-0.5-0.1-1-0.1-1.5-0.1c-0.8,0-1.5,0.1-2.3,0.3c-0.7,0.2-1.4,0.5-2.1,0.9l0,0c-0.7,0.4-1.3,0.9-1.8,1.4c-0.5,0.5-1,1.1-1.4,1.8
			c-0.4,0.7-0.7,1.4-0.9,2.1C51.1,56.3,51,57,51,57.8c0,0.8,0.1,1.5,0.3,2.3c0.2,0.7,0.5,1.4,0.9,2.1l0,0c0.4,0.7,0.9,1.3,1.4,1.8
			c0.5,0.5,1.1,1,1.8,1.4c0.7,0.4,1.4,0.7,2.1,0.9c0.7,0.2,1.5,0.3,2.2,0.3c0.8,0,1.5-0.1,2.3-0.3c0.7-0.2,1.5-0.5,2.1-0.9l0,0
			c0.7-0.4,1.3-0.9,1.8-1.4c0.5-0.5,1-1.1,1.4-1.8c0.2-0.4,0.5-0.9,0.6-1.3l-8.4-2.2L59.6,57.8z"/>
		<path id="Vector__x28_Stroke_x29__x5F_3" class="st0" d="M40.5,42c-1.1,0-2,0.9-2,2v25.8c0,1.1,0.9,2,2,2h38.9c1.1,0,2-0.9,2-2V44
			c0-1.1-0.9-2-2-2H40.5z M35,44c0-3.1,2.5-5.5,5.5-5.5h38.9c3.1,0,5.5,2.5,5.5,5.5v25.8c0,3.1-2.5,5.5-5.5,5.5H40.5
			c-3.1,0-5.5-2.5-5.5-5.5V44z"/>
		<path id="Vector__x28_Stroke_x29__x5F_4" class="st0" d="M72.9,81.8H47.1v-3.5h25.8V81.8z"/>
	</g>
</g>
</svg>
