<?xml version="1.0" encoding="utf-8"?>
<!-- Generator: Adobe Illustrator 27.9.1, SVG Export Plug-In . SVG Version: 6.00 Build 0)  -->
<svg version="1.1" id="레이어_1" xmlns="http://www.w3.org/2000/svg" xmlns:xlink="http://www.w3.org/1999/xlink" x="0px"
	 y="0px" viewBox="0 0 120 121" style="enable-background:new 0 0 120 121;" xml:space="preserve">
<style type="text/css">
	.st0{fill-rule:evenodd;clip-rule:evenodd;fill:#144276;}
</style>
<g id="Group">
	<path id="Union" class="st0" d="M42,35.5h35.2v50H42V35.5z M44.5,38V83h8.7V72H66v11h8.8V38H44.5z M50.4,41.5h-2.6v5.2h2.6V41.5z
		 M54.8,41.5h2.6v5.2h-2.6V41.5z M64.4,41.5h-2.6v5.2h2.6V41.5z M68.9,41.5h2.6v5.2h-2.6V41.5z M50.4,49.5h-2.6v5.2h2.6V49.5z
		 M54.8,49.5h2.6v5.2h-2.6V49.5z M64.4,49.5h-2.6v5.2h2.6V49.5z M68.9,49.5h2.6v5.2h-2.6V49.5z M50.4,57.5h-2.6v5.2h2.6V57.5z
		 M54.8,57.5h2.6v5.2h-2.6V57.5z M64.4,57.5h-2.6v5.2h2.6V57.5z M68.9,57.5h2.6v5.2h-2.6V57.5z M50.4,65.5h-2.6v5.2h2.6V65.5z
		 M54.8,65.5h2.6v5.2h-2.6V65.5z M64.4,65.5h-2.6v5.2h2.6V65.5z M68.9,65.5h2.6v5.2h-2.6V65.5z M55.7,74.5v8.3h2.7v-8.3H55.7z
		 M60.8,74.5v8.3h2.7v-8.3H60.8z"/>
</g>
</svg>
