<?xml version="1.0" encoding="utf-8"?>
<!-- Generator: Adobe Illustrator 27.9.1, SVG Export Plug-In . SVG Version: 6.00 Build 0)  -->
<svg version="1.1" id="레이어_1" xmlns="http://www.w3.org/2000/svg" xmlns:xlink="http://www.w3.org/1999/xlink" x="0px"
	 y="0px" viewBox="0 0 120 121" style="enable-background:new 0 0 120 121;" xml:space="preserve">
<style type="text/css">
	.st0{fill-rule:evenodd;clip-rule:evenodd;fill:#144276;}
</style>
<g id="Group">
	<path id="Union" class="st0" d="M39.1,42.2c0-3.7,3-6.7,6.7-6.7c3.7,0,6.7,3,6.7,6.7c0,3.6-2.8,6.5-6.4,6.7h4.3V51h-9.3
		c-1.1,0-2.1,0.9-2.1,2.1v9.8c0,1.1,0.9,2.1,2.1,2.1h1.8v14.5h-2.1V67C38.7,66.8,37,65,37,62.9V53c0-2.3,1.9-4.1,4.1-4.1h4.3
		C41.9,48.7,39.1,45.8,39.1,42.2z M41.1,42.2c0,2.6,2.1,4.6,4.6,4.6c2.6,0,4.6-2.1,4.6-4.6c0-2.6-2.1-4.6-4.6-4.6
		C43.2,37.6,41.1,39.6,41.1,42.2z M59.9,39.6c-3.7,0-6.7,3-6.7,6.7c0,3.7,3,6.7,6.7,6.7c3.7,0,6.7-3,6.7-6.7
		C66.6,42.6,63.6,39.6,59.9,39.6z M59.9,51c-2.6,0-4.6-2.1-4.6-4.6c0-2.6,2.1-4.6,4.6-4.6c2.6,0,4.6,2.1,4.6,4.6
		C64.5,48.9,62.4,51,59.9,51z M62.7,69.1v14.5h2.1V71.1c2.2-0.1,3.9-1.9,3.9-4.1v-9.8c0-2.3-1.9-4.1-4.1-4.1h-9.3
		c-2.3,0-4.1,1.8-4.1,4.1V67c0,2.2,1.7,4,3.9,4.1v12.4H57V69.1h-1.8c-1.1,0-2.1-0.9-2.1-2.1v-9.8c0-1.1,0.9-2.1,2.1-2.1h9.3
		c1.1,0,2.1,0.9,2.1,2.1V67c0,1.1-0.9,2.1-2.1,2.1H62.7z M48.6,79.4V66h2.1v13.4H48.6z M74,35.5c-3.7,0-6.7,3-6.7,6.7
		c0,3.6,2.8,6.5,6.4,6.7h-4.3V51h9.3c1.1,0,2.1,0.9,2.1,2.1v9.8c0,1.1-0.9,2.1-2.1,2.1h-1.8v14.5h2.1V67c2.2-0.1,3.9-1.9,3.9-4.1V53
		c0-2.3-1.9-4.1-4.1-4.1h-4.3c3.5-0.2,6.4-3.1,6.4-6.7C80.7,38.5,77.7,35.5,74,35.5z M78.6,42.2c0,2.6-2.1,4.6-4.6,4.6
		c-2.6,0-4.6-2.1-4.6-4.6c0-2.6,2.1-4.6,4.6-4.6C76.6,37.6,78.6,39.6,78.6,42.2z M69.1,66v13.4h2.1V66H69.1z"/>
</g>
</svg>
