<svg width="300" height="256" viewBox="0 0 300 256" fill="none" xmlns="http://www.w3.org/2000/svg">
<path fill-rule="evenodd" clip-rule="evenodd" d="M149.721 47.4861C152.442 45.7796 155.232 44.1381 158.027 42.4942C162.742 39.7204 167.469 36.9396 171.891 33.8283C173.256 32.8662 174.178 31.4665 175.097 30.0717C176.082 28.5773 177.063 27.0885 178.581 26.1492C180.755 24.805 181.681 25.8668 182.847 27.202C183.243 27.6553 183.666 28.1401 184.175 28.573C186.014 30.1278 188.45 30.0288 190.789 29.9337C191.344 29.9111 191.893 29.8888 192.428 29.8888C193.036 29.8888 193.694 29.9413 194.337 29.9926C196.787 30.1884 199.025 30.3672 197.532 27.5573C197.258 27.0431 196.888 26.5516 196.527 26.0714C195.947 25.3014 195.39 24.5607 195.286 23.8024C195.248 23.5177 195.286 23.2253 195.401 22.9329C195.577 22.4866 195.945 22.0327 196.612 21.5633C197.931 20.6265 199.969 20.4963 201.891 20.3736C202.984 20.3038 204.039 20.2364 204.903 20.0244L204.983 20.0054L205.101 19.9772C206.122 19.7346 207.978 19.2934 208.666 18.5086C209.109 18.0038 209.135 17.4682 209.162 16.9214C209.183 16.4847 209.205 16.0409 209.44 15.6001C210.356 13.8533 212.093 13.5227 213.85 13.1884C214.267 13.1088 214.686 13.0291 215.095 12.9301C217.915 12.253 218.299 11.4143 218.896 8.65964C218.911 8.5903 218.927 8.51927 218.942 8.4468C219.093 7.7472 219.273 6.91338 219.578 6.17432C217.548 4.65081 215.433 3.23502 213.111 2.06546C210.513 0.757397 207.808 -0.0197472 204.842 0.364978C204.444 0.417157 204.044 0.462784 203.644 0.508441C202.983 0.583972 202.321 0.659587 201.662 0.765091C197.34 1.4499 193.095 2.37324 189.202 4.23531C187.83 4.88934 186.474 5.62032 185.845 7.01302C185.661 7.41314 185.439 7.5978 185.002 7.67475C184.964 7.68146 184.925 7.68745 184.886 7.69343C184.568 7.74226 184.252 7.79087 184.198 8.23644C184.182 8.34417 183.447 8.52884 183.37 8.4442C183.002 8.02869 182.65 8.20567 182.351 8.38264C181.906 8.63507 181.451 8.87661 180.996 9.11812C179.828 9.73791 178.661 10.3575 177.669 11.1604C175.333 13.042 172.7 14.3998 170.071 15.7555C167.293 17.1884 164.519 18.619 162.105 20.6631C160.754 21.8042 159.249 22.9864 157.73 24.1796C155.767 25.7215 153.78 27.2824 152.074 28.7961C150.784 29.9415 149.434 31.1208 148.066 32.3155C145.216 34.8048 142.29 37.3606 139.675 39.8147C138.228 41.1713 137.203 42.6922 136.172 44.2229C135.296 45.5223 134.416 46.8289 133.269 48.0478C132.715 48.6355 132.139 49.2311 131.557 49.8341C129.752 51.702 127.878 53.6413 126.372 55.6422C125.345 57.0111 124.647 58.4293 123.953 59.8383C123.146 61.4785 122.345 63.1063 121.038 64.6294C120.525 65.2296 120.004 65.8682 119.49 66.5222C119.49 66.1324 119.497 65.7425 119.504 65.3527C119.507 65.1578 119.511 64.9628 119.513 64.7679C119.444 64.7987 119.375 64.8295 119.299 64.8602C119.161 64.7371 119.023 64.614 118.877 64.4909C118.992 64.3524 119.099 64.2216 119.253 64.0292C119.253 64.0446 119.222 63.96 119.214 63.8676C119.16 63.4472 119.001 63.0581 118.842 62.6694C118.599 62.0763 118.357 61.484 118.486 60.7822C118.492 60.7339 118.461 60.6761 118.432 60.6238C118.424 60.6094 118.416 60.5954 118.41 60.5821C118.262 60.2865 118.121 59.9878 117.979 59.6892L117.978 59.6881L117.978 59.6872C117.67 59.0386 117.361 58.3895 117 57.7736C115.498 55.2113 113.475 53.2031 111.36 51.2871C111.319 51.2512 111.271 51.229 111.223 51.2068C111.2 51.1957 111.176 51.1845 111.153 51.1717L111.061 51.241C111.16 51.4795 111.26 51.718 111.36 51.9643C110.793 51.9643 110.371 51.441 110.417 50.7408C110.44 50.3792 110.34 50.2253 110.057 50.0791C109.223 49.6497 108.393 49.2102 107.564 48.7709C106.342 48.1238 105.12 47.4769 103.888 46.8628C99.4434 44.6545 94.7842 43.4234 89.8722 43.3695C86.2322 43.331 82.6228 43.6927 79.0518 44.3929C78.2478 44.5498 77.4423 44.6993 76.6368 44.8488C73.6113 45.4102 70.5838 45.972 67.6184 46.9321C65.4483 47.6351 63.2595 48.2671 61.0729 48.8984C60.1247 49.1722 59.1768 49.4459 58.2311 49.7252C58.1028 49.7633 57.9686 49.7808 57.8102 49.8014C57.7132 49.814 57.6071 49.8278 57.4878 49.8483C57.5277 49.6972 57.5578 49.5659 57.5849 49.4475C57.6254 49.2704 57.6595 49.1217 57.71 48.9788C58.6372 46.278 59.9093 43.7619 61.2657 41.2997C62.4394 39.1701 63.6581 37.0718 64.8775 34.972C65.4734 33.9461 66.0695 32.9197 66.6605 31.8893C67.2276 30.9044 68.0399 30.512 69.0744 30.4581C71.6876 30.3427 74.3083 30.2196 76.9215 30.0349C80.7914 29.7656 84.6382 29.227 88.4621 28.4807C93.083 27.5727 97.6273 26.3416 101.995 24.3718C105.559 22.7637 108.861 20.7092 111.681 17.7545C113.506 15.85 115.346 13.9618 117.188 12.0721C117.876 11.366 118.565 10.6597 119.253 9.95232C119.437 9.75996 119.62 9.56759 119.835 9.4214C120.091 9.24742 120.354 9.08534 120.618 8.92341C121.088 8.63417 121.558 8.34538 121.981 7.99022C123.122 7.02841 124.111 5.88193 124.839 4.48923C124.986 4.20503 125.09 3.89564 125.204 3.55367C125.257 3.39566 125.312 3.2307 125.375 3.05805C125 3.04266 124.785 3.03497 124.571 3.02727C122.82 2.96617 121.069 2.9084 119.317 2.85063C115.114 2.71197 110.911 2.5733 106.708 2.38863C102.999 2.21935 99.3668 2.7041 95.7804 3.6813C93.8821 4.19959 91.9933 4.75363 90.1048 5.30761C88.6008 5.74878 87.0968 6.18993 85.5885 6.61291C82.2397 7.55933 78.8602 8.28261 75.3965 8.20567C74.7911 8.19028 74.1627 7.93636 73.588 7.65936C73.257 7.50136 72.9645 7.25078 72.6722 7.00048C72.5517 6.89729 72.4313 6.79414 72.3083 6.69755C72.0451 6.4971 71.7847 6.29395 71.5269 6.0929C71.3493 5.95443 71.1729 5.81679 70.9979 5.68187C70.8676 5.93579 70.768 6.12815 70.6684 6.31282C70.6377 6.30897 70.609 6.3032 70.5802 6.29743C70.5515 6.29166 70.5228 6.28589 70.4921 6.28204C70.4803 6.12403 70.4705 5.96398 70.4607 5.80294L70.4606 5.80157C70.4513 5.6494 70.4419 5.49636 70.4308 5.34332C70.406 5.33296 70.3774 5.32372 70.3476 5.31409C70.2666 5.28795 70.1767 5.25897 70.1319 5.19712C69.7794 4.65851 69.2813 4.55078 68.7219 4.55848C67.1893 4.57387 65.8789 5.21251 64.898 6.4898C64.223 7.37725 63.6364 8.34721 63.0522 9.31322L62.875 9.60607C62.8177 9.70077 62.7606 9.79556 62.7035 9.89032C62.0045 11.0504 61.309 12.2048 60.3385 13.1224C59.1737 14.2228 57.802 14.669 56.3076 14.8075C55.1505 14.9153 54.2616 14.4151 53.457 13.5841C53.3803 13.4995 53.1811 13.4225 53.1198 13.4764C52.6885 13.819 52.6411 13.5263 52.5825 13.1639C52.5713 13.0949 52.5597 13.0233 52.545 12.9532C52.4983 13.0501 52.4526 13.1324 52.4114 13.2066C52.3448 13.3268 52.2899 13.4256 52.2615 13.5303C52.0623 14.2228 52.1466 14.8922 52.5144 15.4924C52.6159 15.6612 52.7239 15.8246 52.8319 15.9878C53.0094 16.256 53.1867 16.5241 53.3344 16.8158L53.3667 16.8778C53.5588 17.2451 53.766 17.6411 53.4033 18.0854C53.348 18.1521 53.3806 18.307 53.4116 18.4546C53.4235 18.5114 53.4352 18.5671 53.4416 18.6163C53.5645 18.5167 53.667 18.4375 53.7616 18.3644L53.7624 18.3638L53.7634 18.363C53.8216 18.3181 53.8768 18.2754 53.9321 18.2316C53.9518 18.2885 53.9818 18.3511 54.0117 18.4133C54.0747 18.5444 54.137 18.6741 54.1007 18.7471C53.8905 19.2139 54.0878 19.5106 54.2837 19.8051C54.3235 19.865 54.3633 19.9248 54.3995 19.9859C54.3306 20.2014 54.2922 20.4091 54.3459 20.5938C54.4608 20.9939 54.4532 21.3094 54.162 21.6556C51.1887 25.0797 48.2307 28.5114 45.2804 31.9509C44.1972 33.2108 43.1132 34.4704 42.029 35.7302C38.174 40.2097 34.3168 44.6918 30.4829 49.2019C28.5671 51.4564 26.8429 53.8956 25.7624 56.7887C24.383 60.4821 23.9539 64.2524 25.0574 68.1304C25.8544 70.9235 27.0651 73.4858 28.6207 75.8403C28.7869 76.093 28.9649 76.3398 29.1492 76.5953C29.2623 76.7521 29.3778 76.9123 29.4943 77.0791C29.6323 76.7175 29.7396 76.4481 29.8698 76.1327C30.207 76.4328 30.1687 76.7174 30.0921 77.0406C30.0538 77.2176 30.0538 77.5023 30.1457 77.61C30.3516 77.8512 30.5916 78.0623 30.8084 78.2531C30.8821 78.3179 30.9532 78.3805 31.0193 78.441C31.1609 78.3191 31.2625 78.2274 31.3526 78.146L31.3534 78.1453L31.3549 78.1439L31.356 78.1429L31.3575 78.1416C31.4021 78.1013 31.444 78.0634 31.4868 78.0255C31.5021 78.1179 31.5155 78.2121 31.5289 78.3064C31.5423 78.4006 31.5557 78.4949 31.5711 78.5872C31.5746 78.6106 31.5774 78.6357 31.5802 78.6612C31.5893 78.7446 31.5989 78.8324 31.64 78.8796C32.46 79.7645 33.4255 80.3877 34.5214 80.7263C34.5576 80.5627 34.592 80.4146 34.6248 80.2739C34.6614 80.1166 34.6959 79.9686 34.7283 79.8183C34.7834 79.8183 34.8323 79.8121 34.8862 79.8053L34.9045 79.8029C34.9363 79.8643 34.979 79.9273 35.0219 79.9905C35.1135 80.1255 35.2062 80.262 35.1957 80.3877C35.1344 81.011 35.5099 81.0802 35.8931 81.1495C36.2915 81.2187 36.69 81.2649 37.0885 81.2803C40.468 81.3803 43.6405 80.3646 46.6904 78.8719C48.5176 77.9768 50.3278 77.037 52.1378 76.0973C53.7665 75.2517 55.3951 74.4062 57.0356 73.5935C62.7064 70.7927 68.5074 68.3997 74.5229 66.653C80.9063 64.7987 87.397 63.8369 93.9873 63.6984C95.0928 63.6728 96.1949 63.6812 97.3094 63.6897C97.8713 63.694 98.4364 63.6984 99.0066 63.6984C99.0909 66.2683 98.7461 68.6382 97.8418 70.9081C96.5391 74.2167 94.6386 77.0868 92.493 79.7799C88.8606 84.3581 84.6996 88.3131 80.3162 91.9679C73.3045 97.8234 65.8329 102.879 57.9705 107.211C53.1198 109.881 48.1464 112.212 42.9585 113.982C38.9583 115.344 34.8892 115.675 30.7588 115.39C30.3756 115.359 29.9925 115.298 29.617 115.213C27.7855 114.79 26.8506 113.589 26.8659 111.52C26.8659 110.373 27.0038 109.227 27.1418 108.096C27.3041 106.808 27.4801 105.525 27.6561 104.242L27.6562 104.241C27.8041 103.162 27.9521 102.083 28.092 101.001C28.115 100.794 28.0383 100.432 27.9157 100.37C27.5866 100.209 27.475 100.49 27.3647 100.769C27.3543 100.795 27.3439 100.822 27.3333 100.847C27.2911 100.951 27.2498 101.056 27.2084 101.16C27.0475 101.567 26.8862 101.974 26.6666 102.348C26.178 103.195 25.6791 104.036 25.18 104.877C24.3878 106.211 23.5949 107.547 22.8427 108.911C22.1607 110.158 21.6013 111.497 21.0726 112.835C20.7201 113.736 20.7201 114.721 20.789 115.705C21.0022 115.268 21.2398 115.386 21.471 115.502C21.6055 115.569 21.7378 115.635 21.8619 115.59C22.0381 113.766 22.1301 113.482 22.6971 113.182C22.5592 114.697 22.222 116.121 21.7469 117.506C21.7086 117.621 21.4864 117.744 21.3561 117.737C20.9806 117.714 20.8963 117.929 20.9729 118.245C21.0222 118.446 21.0907 118.642 21.1594 118.839C21.2404 119.071 21.3216 119.303 21.3714 119.545C21.4404 119.891 21.5017 120.322 21.3714 120.591C21.2795 120.776 20.8503 120.815 20.5668 120.838C20.4167 120.848 20.2666 120.806 20.081 120.754C19.9919 120.728 19.8946 120.701 19.7852 120.676C19.8 120.783 19.8053 120.891 19.8103 120.993C19.8206 121.207 19.8298 121.395 19.9231 121.499C20.0457 121.63 20.3599 121.592 20.5821 121.553C20.7709 121.515 20.956 121.443 21.1532 121.366L21.1549 121.365C21.2373 121.333 21.3219 121.3 21.4097 121.269C21.4184 121.341 21.4281 121.403 21.4368 121.46C21.4514 121.553 21.4634 121.63 21.4634 121.707C21.5477 123.846 21.9078 125.931 22.4749 127.97C22.4982 128.053 22.5273 128.135 22.5562 128.217C22.6701 128.54 22.7836 128.861 22.5515 129.217C22.5266 129.252 22.557 129.333 22.5918 129.426C22.6104 129.475 22.6302 129.528 22.6435 129.579C22.761 129.512 22.8581 129.459 22.9551 129.406C23.0037 129.379 23.0522 129.353 23.1033 129.325C23.2676 129.562 23.4277 129.796 23.5878 130.029C23.801 130.34 24.0142 130.651 24.2374 130.971C24.3905 130.748 24.4824 130.61 24.6201 130.403C24.7716 130.642 24.9154 130.865 25.0586 131.088L25.0608 131.091C25.1559 131.24 25.2511 131.388 25.3486 131.541C25.2967 131.546 25.2519 131.551 25.2046 131.557L25.2029 131.557C25.1108 131.568 25.0089 131.579 24.8275 131.595C25.2596 132.157 25.6664 132.684 26.0785 133.217C26.3825 133.611 26.6894 134.008 27.0115 134.426C26.8394 134.354 26.6902 134.291 26.5537 134.233L26.5433 134.228C26.35 134.146 26.1812 134.074 26.0076 134.003C26.1774 134.212 26.3444 134.417 26.5054 134.615L26.5083 134.618C26.7315 134.892 26.9431 135.152 27.1341 135.388C27.1796 135.349 27.2238 135.31 27.2674 135.272C27.3777 135.176 27.4841 135.084 27.5939 134.996C27.6475 135.211 27.7012 135.426 27.7472 135.642C27.7472 135.657 27.7472 135.68 27.7395 135.696C27.5504 136.01 27.7133 136.206 27.8876 136.416L27.9157 136.45C28.2071 136.792 28.4945 137.139 28.782 137.486L28.7829 137.487C29.3874 138.217 29.9924 138.947 30.6362 139.635C31.2799 140.32 31.9772 140.99 32.7435 141.482C35.1267 143.036 37.7782 143.683 40.4986 143.967C44.1999 144.352 47.8705 143.983 51.5182 143.182C57.7407 141.805 63.5263 139.143 69.0438 135.719C76.2471 131.248 82.6995 125.662 88.7074 119.422C95.3283 112.535 101.252 105.002 106.562 96.8924C105.98 101.632 105.919 106.411 106.539 111.212C107.62 119.66 110.287 127.647 115.582 134.834C119.352 139.951 124.172 143.99 130.203 146.784C134.679 148.853 139.43 149.884 144.319 150.431L144.421 150.442C147.062 150.739 149.702 151.035 152.35 150.754C153.43 150.638 154.35 150.354 154.442 149.161C154.442 149.13 154.518 149.115 154.534 149.107C154.668 149.154 154.799 149.21 154.93 149.265C155.209 149.383 155.483 149.499 155.76 149.515C156.129 149.53 156.498 149.549 156.868 149.567L156.87 149.567L156.873 149.567H156.874H156.875H156.876H156.877C158.217 149.635 159.56 149.702 160.879 149.6C166.128 149.184 170.871 147.399 175.416 145.16C178.32 143.729 181.079 142.113 183.738 140.374C183.391 140.504 182.999 140.658 182.573 140.825L182.57 140.826C180.202 141.755 176.784 143.095 174.174 143.121H174.036C171.737 143.098 170.121 142.005 170.504 138.612C170.902 135.088 171.439 131.633 172.948 128.44C173.263 127.776 173.71 127.156 174.158 126.534C174.921 125.476 175.686 124.415 175.807 123.131C175.935 121.708 175.45 119.801 175.051 118.233C174.952 117.842 174.858 117.473 174.78 117.137C174.197 114.613 173.546 111.92 171.868 109.881C171.534 109.474 171.067 109.081 170.585 108.673C169.294 107.584 167.889 106.399 168.603 104.618C169.357 102.749 171.647 102.561 173.957 102.371C177.022 102.118 180.121 101.863 179.715 97.6773C179.148 91.8679 174.174 89.2826 169.255 88.1592C167.76 87.8219 166.348 87.2929 164.934 86.7633C163.768 86.3263 162.601 85.8889 161.385 85.5584C160.291 85.2635 159.094 85.1326 157.886 85.0006C155.817 84.7745 153.715 84.5449 152.051 83.4809C147.998 80.8758 150.123 77.7329 152.12 74.779C152.548 74.1473 152.969 73.5237 153.323 72.9164C153.74 72.1998 154.253 71.4374 154.787 70.6422C156.865 67.5523 159.276 63.9666 157.722 60.6437C156.554 58.1474 154.381 57.7983 152.085 57.4294C150.552 57.1831 148.964 56.928 147.583 56.0193C145.277 54.5034 144.342 53.3416 144.342 52.3028C144.342 50.795 146.327 49.5581 148.969 47.9128L148.971 47.9115C149.213 47.7605 149.461 47.606 149.714 47.4476L149.721 47.4861ZM212.192 42.5385C209.106 43.4584 207.964 44.7447 206.263 46.6597C205.801 47.1795 205.299 47.7456 204.705 48.3632C202.889 50.251 200.298 51.5546 197.697 52.8629C193.524 54.9621 189.328 57.0732 188.275 61.6285C187.25 66.0711 190.695 68.1442 193.98 70.1206C194.968 70.7149 195.941 71.3006 196.773 71.9392C198.069 72.9317 199.049 73.8474 200.046 75.1478C200.291 75.4719 200.534 75.7944 200.775 76.1154C202.3 78.1409 203.776 80.1018 205.509 81.9882C205.72 82.217 205.934 82.4499 206.152 82.6867C209.814 86.6608 214.472 91.7154 216.215 96.777C216.979 99.002 216.951 101.383 216.924 103.751C216.905 105.495 216.885 107.232 217.18 108.896L217.748 108.195L217.749 108.194L217.75 108.192L217.751 108.191L217.752 108.19L217.753 108.189L217.754 108.188L217.755 108.187L217.756 108.185L217.757 108.184L217.757 108.183L217.758 108.182L217.759 108.181L217.76 108.18L217.761 108.179L217.762 108.178L217.763 108.176L217.764 108.175C220.138 105.245 222.516 102.31 224.782 99.3085C230.254 92.0603 235.189 84.512 239.281 76.502C241.266 72.6163 243.005 68.6459 244.178 64.4601C245.036 61.3977 245.327 58.2583 245.496 55.1036C245.802 49.3712 245.35 43.685 243.572 38.0988C241.84 32.628 238.921 27.8035 234.078 24.0409C233.786 23.8163 233.491 23.5952 233.14 23.332C232.974 23.2074 232.795 23.0735 232.599 22.9252C232.813 22.7969 233.017 22.674 233.214 22.5553C233.677 22.2757 234.102 22.0195 234.537 21.7711C235.02 21.4941 235.219 21.0632 234.974 20.6323C234.813 20.3468 234.661 20.0513 234.508 19.7546C234.033 18.8358 233.553 17.906 232.806 17.2313C231.668 16.2012 230.499 15.2093 229.326 14.2151L228.982 13.9227L228.904 13.9587L228.817 13.9987C228.126 14.3171 227.247 14.7221 226.368 15.4693C224.276 17.2544 222.001 20.4938 220.629 22.8714C218.78 26.088 218.683 28.9486 218.575 32.1212C218.535 33.2744 218.495 34.4688 218.368 35.7366C217.97 39.6761 215.724 41.4767 212.176 42.5385H212.192ZM216.875 131.987H211.902V130.871H223.473V131.987H218.216V136.065H216.875V131.987ZM281.811 132.857V124.446H280.501V125.701H277.167V126.755H280.501V127.801H277.167V128.871H280.501V132.857H281.811ZM251.733 127.186C252.338 127.17 252.875 127.016 253.35 126.685C253.687 126.432 253.994 125.931 254.032 125.416H254.929L254.913 135.003H253.756V128.14H251.733V127.186ZM259.85 134.057C258.493 134.057 257.773 132.379 257.773 130.202C257.773 128.024 258.493 126.37 259.85 126.37C261.206 126.37 261.926 128.009 261.926 130.202C261.926 132.395 261.244 134.057 259.85 134.057ZM259.85 125.285C257.604 125.285 256.432 127.278 256.432 130.194C256.432 133.11 257.604 135.142 259.85 135.142C262.095 135.142 263.306 133.126 263.306 130.194C263.306 127.263 262.095 125.285 259.85 125.285ZM265.519 130.202C265.519 132.379 266.239 134.057 267.596 134.057C268.99 134.057 269.672 132.395 269.672 130.202C269.672 128.009 268.952 126.37 267.596 126.37C266.239 126.37 265.519 128.024 265.519 130.202ZM264.178 130.194C264.178 127.278 265.35 125.285 267.596 125.285C269.841 125.285 271.052 127.263 271.052 130.194C271.052 133.126 269.841 135.142 267.596 135.142C265.35 135.142 264.178 133.11 264.178 130.194ZM225.892 132.641V130.156H230.229V125.562H224.574V126.685H228.927V129.048H224.574V133.764L227.9 133.734C229.356 133.711 231.08 133.534 231.869 133.418V132.318C231.118 132.449 229.463 132.595 228.306 132.626L225.892 132.641ZM235.066 130.125H246.638V131.233H235.066V130.125ZM233.947 124.446H232.629V136.065H233.947V124.446ZM236.56 128.671V124.5H237.878V127.563H245.296V128.671H236.56ZM274.846 132.287H273.527V135.803H282.08V134.688H274.846V132.287ZM279.274 129.648V130.733H279.267C278.508 130.902 276.86 131.141 275.113 131.171L272.247 131.195V124.931H273.565V130.079L275.128 130.056C276.699 130.033 278.378 129.833 279.274 129.648ZM237.878 132.272H236.56V135.803H245.534V134.688H237.878V132.272ZM192.626 126.609H186.894V129.794H192.626V126.609ZM190.435 130.902V132.533H190.427V133.48H195.531V134.588H183.975V133.48H189.078V130.902H185.584V125.485H193.96V130.902H190.435ZM205.677 128.248H198.298V126.07H205.547V124.962H199.409H196.972V127.093V129.356H205.677V128.248ZM213.401 124.708H214.704V126.193V128.117H222.16V129.225H213.401V127.393V124.708ZM195.454 131.918H200.558V132.964V136.065H201.861V132.649V131.918H204.627H207.026V131.171V130.81H195.454V131.918ZM239.526 117.491H240.882V119.599H248.721V120.707H239.526V117.491ZM274.363 117.198H273.007V120.707H281.812V119.599H274.363V117.198ZM278.931 114.551V115.636C278.141 115.813 276.448 116.052 274.647 116.075L271.697 116.098V109.835H273.053V114.982L274.662 114.959C276.271 114.936 278.011 114.736 278.931 114.551ZM266.891 111.281C268.324 111.281 269.029 112.92 269.029 115.113C269.029 117.306 268.324 118.968 266.891 118.968C265.458 118.968 264.753 117.291 264.753 115.113C264.753 112.935 265.497 111.281 266.891 111.281ZM266.891 120.061C269.205 120.061 270.455 118.045 270.455 115.113C270.455 112.181 269.205 110.204 266.891 110.204C264.577 110.204 263.366 112.197 263.366 115.113C263.366 118.029 264.569 120.061 266.891 120.061ZM243.94 110.312C242.047 110.312 240.813 110.927 240.813 111.72C240.813 112.551 242.055 113.174 243.94 113.174C245.825 113.174 247.059 112.551 247.059 111.735C247.059 110.919 245.833 110.312 243.94 110.312ZM248.492 111.72C248.492 113.028 247.22 114.005 244.63 114.151V115.336H249.902V116.459H237.978V115.336H243.235V114.151C240.675 114.005 239.403 113.028 239.403 111.72C239.403 110.319 240.921 109.281 243.94 109.281C246.959 109.281 248.492 110.319 248.492 111.72ZM262.661 116.867C262.661 114.528 260.899 113.674 259.788 113.582C259.136 113.543 258.378 113.659 257.726 114.067L258.133 111.543H262.278V110.442H257.09L256.309 115.444L257.473 115.459C257.841 114.982 258.408 114.644 259.359 114.644C260.577 114.644 261.297 115.644 261.297 116.89C261.297 118.137 260.485 119.099 259.336 119.099C258.186 119.099 257.374 118.306 257.267 117.491H256.079C256.293 118.837 257.42 120.168 259.397 120.168C260.999 120.168 262.677 118.983 262.677 116.867H262.661ZM281.542 117.768H280.186V113.774H276.76V112.705H280.186V111.666H276.76V110.604H280.186V109.35H281.542V117.768ZM225.119 109.35H223.762V115.475H225.119V109.35ZM236.951 109.35V120.976H235.602V118.214H232.713V117.09H235.602V109.35H236.951ZM230.844 120.699V115.79C232.2 115.79 234.177 115.644 235.166 115.498V114.405C234.553 114.513 233.557 114.613 232.974 114.628C233.311 113.705 233.526 111.089 233.572 110.335H227.097V111.443H232.085C232.016 112.366 231.771 114.067 231.641 114.69H226.361V115.798H229.518V120.699H230.844ZM218.024 118.914V119.814H220.361H225.434V120.845H219.81H216.507V117.921H221.227H223.618V117.021H221.549H216.507V115.998H221.871H225.105V118.914H220.798H218.024ZM216.122 112.374C216.122 111.543 217.003 110.858 217.961 110.858C218.919 110.858 219.8 111.527 219.8 112.374C219.8 113.22 218.919 113.928 217.961 113.928C217.003 113.928 216.122 113.228 216.122 112.374ZM221.179 112.397C221.179 110.789 219.647 109.704 217.969 109.704C216.29 109.704 214.758 110.789 214.758 112.397C214.758 114.005 216.298 115.105 217.969 115.105C219.639 115.105 221.179 114.005 221.179 112.397ZM207.51 109.357V117.737V120.976H206.238V118.999V109.357H207.51ZM193.11 119.768H187.432V118.122H193.11V119.768ZM194.451 117.06H186.091V120.838H194.451V117.06ZM196.941 110.896H199.915C199.915 113.536 198.842 116.706 197.179 118.399L196.098 117.991C197.631 116.421 198.497 114.082 198.566 111.981H196.941V110.896ZM188.161 113.582C189.295 113.582 190.016 113.928 190.016 114.467C190.016 115.005 189.295 115.352 188.161 115.352C187.027 115.352 186.276 115.021 186.276 114.482C186.276 113.943 187.019 113.582 188.161 113.582ZM188.134 116.313C190.14 116.312 191.426 115.52 191.426 114.467C191.426 113.413 190.153 112.674 188.161 112.674C186.169 112.674 184.858 113.443 184.858 114.482C184.858 115.52 186.236 116.312 188.134 116.313ZM199.963 119.158L199.962 119.16H199.969L199.963 119.158ZM202.782 110.896C202.797 114.25 201.748 116.85 199.963 119.158L198.843 118.752C200.368 116.96 201.456 114.559 201.456 111.981H200.237V110.896H202.782ZM196.114 112.274H194.436V109.35H193.095V116.329H194.436V113.382H196.114V112.274ZM205.095 120.445H204.78H203.823V115.028H202.558V113.843H203.823V109.619H205.095V120.13V120.445ZM190.13 109.304H186.161V110.342H190.13V109.304ZM184.368 111.081H191.916V112.12H184.368V111.081Z" fill="white"/>
<path d="M279.181 213.054L279.758 212.862L280.529 212.573L281.01 212.669L281.587 212.477L281.828 212.332L282.454 212.284L282.694 211.995L284.186 211.851L284.86 211.658L285.197 210.84L286.304 210.503L287.267 209.926H289.48L290.395 210.6L290.587 211.37L290.058 212.621C289.48 212.573 288.71 212.765 287.94 213.295L287.218 213.872L286.015 214.161L284.668 214.835L282.55 215.701L281.106 216.375L279.277 216.086L277.352 216.856L276.774 217.434L275.908 217.723L274.801 217.771L273.694 217.53L273.117 216.856L272.298 215.605L272.25 214.402L271.673 213.487L271.577 212.284V210.263L271.432 208.867L271.721 207.375L271.673 205.979L271.432 204.968L271.047 204.343L270.951 203.525L270.662 202.851L270.758 202.225L271.962 202.033L272.972 202.466L273.502 203.236L274.127 203.621L274.512 204.247L275.138 204.92L275.716 205.787L275.908 206.605L275.956 207.279L276.293 208.771L276.149 210.118L276.245 211.177L276.197 212.14L276.486 212.573C276.534 212.765 276.678 212.862 276.871 212.813C277.015 212.862 277.159 212.862 277.256 212.765C277.352 212.717 277.545 212.717 277.737 212.765C277.881 212.765 278.026 212.813 278.218 212.862L279.181 213.054ZM283.031 201.551L283.705 201.214L284.331 201.118L285.053 200.781L286.063 200.252L286.978 200.059L287.603 199.963C287.94 199.771 288.277 199.578 288.614 199.434C288.999 199.386 289.336 199.241 289.721 199.001C289.914 198.952 290.01 198.76 290.154 198.567C290.251 198.423 290.347 198.23 290.443 198.086L291.069 197.99L292.561 198.423L292.849 198.471L292.561 197.124C292.224 196.257 291.454 195.583 290.732 194.958C290.443 194.717 290.539 194.284 290.491 193.899L291.454 193.418C291.165 193.562 293.571 193.658 294.582 193.995L295.833 194.573L297.47 195.102L297.999 196.594L297.759 198.134L297.951 200.493L298.192 201.985L297.951 203.428L297.759 205.209L297.518 207.182L297.566 209.348L297.037 212.043L296.603 213.391L296.411 215.172L296.074 217.049L295.256 217.963L293.956 217.867L293.283 215.894L293.186 214.739L292.753 212.958L292.898 211.755L292.753 209.878L293.331 208.482L292.753 206.846V206.172L291.791 206.894L290.972 206.942L290.732 207.327L289.24 207.664L288.325 207.712L287.555 208.049L286.93 208.097L285.726 208.626L284.234 208.241L283.464 207.712L283.272 206.99L284.138 206.124L285.245 205.69L285.63 205.835L286.833 204.92L287.555 204.68L288.614 204.198L289.384 204.102L290.395 203.621L292.753 203.188V202.562L292.849 201.455L292.898 200.541L291.309 201.551C290.924 201.792 290.251 202.033 289.817 202.273C289.529 202.466 288.71 202.658 288.181 202.658C287.555 202.706 286.93 202.755 286.352 202.803L285.534 202.899L284.283 202.706L283.416 202.321L283.079 201.84L283.031 201.551ZM279.47 219.84L280.288 219.551L281.01 220.322L282.117 221.717L283.272 222.343L285.293 222.92L285.871 223.161L286.978 223.402L288.422 223.209L289.577 223.161L291.502 222.776L292.946 222.199L295.208 222.15L297.614 222.68L298.914 223.161C299.154 224.076 299.154 224.798 298.047 225.76L296.074 227.204L293.86 227.589L291.213 227.83L289.529 227.733L287.7 227.83L286.352 228.022L283.464 227.252L282.406 226.723L280.914 225.086L280.529 223.883L279.614 222.824L279.325 221.332L279.037 220.707L279.47 219.84Z" fill="white"/>
<path d="M267.482 205.161C267.482 205.402 267.867 206.894 267.964 207.134C268.06 207.375 268.06 208.097 268.108 208.338C268.204 208.723 268.06 209.204 268.156 209.589C268.3 210.07 268.012 211.562 268.012 211.995C268.06 212.429 268.156 212.814 268.156 213.151C268.06 213.536 267.964 213.921 267.867 214.065C267.819 214.161 267.771 214.45 267.675 214.883C267.627 215.894 267.434 217.193 266.76 217.867C266.664 218.011 266.568 218.108 266.472 218.204C266.423 218.445 266.423 218.541 266.279 218.685C266.183 218.83 265.99 218.926 265.942 219.118C265.75 219.407 265.509 219.552 265.413 219.744L264.161 221.621C264.065 221.717 263.921 221.717 263.873 221.766C263.68 221.91 263.584 222.006 263.536 222.054C263.247 222.199 263.006 222.199 262.814 222.199C262.573 222.247 262.429 222.295 262.284 222.391L261.322 223.354L260.455 223.787C260.311 223.979 260.119 224.076 259.926 224.124C259.878 224.172 259.83 224.268 259.734 224.268H258.627C258.338 224.268 258.001 224.316 257.664 224.22C257.471 224.268 257.086 224.316 256.942 224.22C256.846 224.172 256.846 224.172 256.75 224.22C255.113 224.268 254.68 223.065 253.766 222.439C253.573 222.487 253.332 222.439 253.284 222.343C253.14 222.006 252.996 221.669 252.899 221.477C252.755 221.284 252.659 221.284 252.562 221.092C252.514 220.947 252.37 220.803 252.274 220.514C252.081 220.418 252.033 220.177 251.985 219.937C251.792 219.407 251.696 219.07 251.696 218.878C251.6 218.685 251.6 218.541 251.696 218.445C251.696 218.348 251.744 218.252 251.744 218.06V217.29C251.744 217.193 251.696 217.097 251.696 216.953C251.648 216.856 251.6 216.76 251.6 216.616C251.504 216.471 251.504 216.279 251.504 216.038C251.455 215.846 251.407 215.749 251.407 215.653C251.359 215.316 251.359 215.028 251.407 214.787C251.407 214.594 251.407 214.402 251.504 214.161V213.295L251.359 213.343C251.504 213.199 251.504 213.054 251.6 212.91C251.6 212.814 251.648 212.765 251.696 212.621C251.696 212.525 251.744 212.429 251.792 212.332C251.792 212.236 251.84 212.14 251.84 212.044C251.84 211.947 251.889 211.947 251.937 211.851C251.937 211.61 251.985 211.322 251.985 210.937C252.081 210.552 252.033 210.167 252.129 209.781C252.129 209.445 252.177 209.252 252.225 209.108C252.274 208.915 252.322 208.723 252.37 208.434C252.37 208.29 252.322 208.049 252.514 207.904C252.562 207.808 252.659 207.712 252.659 207.568C252.707 207.471 252.755 207.375 252.803 207.231C252.851 207.134 252.851 207.038 252.947 206.942C252.996 206.798 253.092 206.605 253.188 206.461C253.236 206.22 253.236 206.076 253.284 205.931C253.284 205.931 253.236 205.739 253.429 205.498C253.477 205.257 253.573 205.017 253.669 204.68C253.766 204.295 253.91 204.006 254.054 203.669C254.102 203.38 254.247 203.043 254.391 202.755C254.536 202.514 254.824 202.322 254.969 202.225C255.739 201.022 257.038 199.771 258.001 198.856C258.819 198.086 258.963 197.749 259.83 197.22C260.167 196.931 260.84 196.402 261.274 196.305C262.044 196.209 263.68 196.065 264.017 196.498C264.065 196.594 266.038 197.22 265.509 197.797C265.509 197.846 265.124 199.001 264.883 199.386C264.402 200.011 263.391 199.723 263.295 199.915C262.381 200.637 261.562 200.396 261.129 201.07C260.407 201.84 259.06 203.717 258.434 204.487C258.29 204.872 258.193 205.257 258.097 205.691C257.953 206.124 257.568 207.231 257.375 207.519C257.52 207.953 257.423 208.386 257.279 208.867L256.846 208.963V209.204C256.846 209.252 256.75 209.3 256.701 209.396C256.557 210.07 256.365 210.6 256.316 211.562C256.172 212.477 256.124 213.006 256.076 213.68V214.546C256.124 214.787 256.124 214.979 256.124 215.22L256.172 216.038C256.268 216.231 256.268 216.375 256.316 216.471C256.316 216.52 256.316 216.616 256.365 216.664C256.461 216.808 256.605 216.905 256.605 217.049C256.605 217.338 256.653 217.53 256.75 217.578C256.798 217.675 256.846 217.723 256.894 217.723C256.942 217.915 256.99 218.012 257.038 217.963C257.183 218.012 257.231 218.06 257.327 218.06C257.471 218.108 257.616 218.108 257.808 218.156C257.953 218.252 258.049 218.348 258.097 218.348C258.145 218.445 258.097 218.493 258.29 218.445C258.29 218.493 258.29 218.493 258.338 218.493C258.434 218.493 259.156 218.782 259.3 218.926H259.541L259.878 218.733C260.407 218.252 260.696 218.397 261.177 217.819C261.37 217.578 261.418 217.626 261.562 217.434L261.996 216.953C262.236 216.76 262.284 216.616 262.381 216.52C262.429 216.471 262.477 216.375 262.525 216.231C262.525 216.086 262.525 215.942 262.573 215.798C262.573 215.749 262.573 215.701 262.621 215.605C262.621 215.605 262.621 215.557 262.669 215.461V215.316C262.862 215.028 263.054 214.739 263.391 214.306V214.354L263.728 214.017C263.728 213.921 263.776 213.776 263.776 213.632C263.776 213.584 263.776 213.439 263.824 213.247L264.258 211.322C264.306 210.985 264.354 210.696 264.402 210.359C264.402 210.118 264.45 209.83 264.45 209.637L264.691 208.675C264.643 208.482 264.595 208.29 264.546 208.001C264.402 207.856 264.498 207.616 264.45 207.471C264.45 207.375 264.354 207.279 264.354 207.134C264.306 207.134 264.258 207.038 264.21 206.894C264.161 206.798 264.161 206.701 264.065 206.605C264.017 206.461 264.017 206.268 263.969 206.124C263.873 205.931 263.824 205.835 263.728 205.691C263.728 205.691 263.969 205.306 263.68 205.257L262.91 203.669C261.996 203.284 261.707 202.803 262.236 202.081C263.006 201.407 263.632 201.118 264.45 201.359L265.894 202.37C266.664 203.284 267.242 204.199 267.482 205.161Z" fill="white"/>
<path d="M241.123 210.696C240.642 210.263 240.305 210.311 239.391 210.503L238.187 210.792C237.754 211.225 235.829 211.706 235.107 211.466C234.289 211.321 234.048 210.166 234.048 209.926C234.096 209.444 233.711 209.156 233.904 208.386V207.664L234.096 206.942L234.241 206.027L234.193 205.787C234.241 205.642 234.337 205.017 234.337 204.92C234.481 204.92 234.53 204.872 234.481 204.824V204.68C234.481 204.631 234.53 204.006 234.53 203.813C234.626 203.621 234.674 203.428 234.626 203.284C234.674 203.236 234.578 202.61 234.53 202.466C234.578 202.369 234.578 202.273 234.433 202.177L234.241 201.407C234.096 201.262 234.048 201.166 233.856 201.07C233.76 200.926 233.663 200.733 233.375 200.637C233.326 200.637 233.23 200.589 233.134 200.541L232.653 200.011C232.653 199.915 232.604 199.867 232.46 199.867C232.412 199.867 232.268 199.819 232.123 199.674C232.027 199.578 231.979 199.53 231.883 199.482L231.594 198.615L231.931 198.375L232.604 198.134L233.615 197.942L234.481 197.557L235.396 197.605C235.54 197.605 236.599 197.605 236.599 197.557C236.647 197.557 238.091 197.508 238.139 197.46C238.38 197.508 238.957 197.46 239.054 197.364C239.198 197.268 239.342 197.22 239.535 197.172H240.305L241.027 197.027L241.99 196.979L243.241 196.594L244.492 196.065L246.225 196.498L246.899 197.412C246.947 197.942 246.851 198.375 246.61 198.615C246.61 198.76 246.61 198.808 246.562 198.856C246.466 198.904 246.321 198.952 246.177 199C245.984 199.097 245.888 199.097 245.792 199.097L243.963 200.107C243.482 200.396 240.113 200.974 239.824 201.022L239.246 201.888V202.321C239.198 202.514 239.246 202.947 239.294 203.043C239.342 203.139 239.342 203.428 239.294 203.525V205.835C239.15 206.46 238.957 206.605 238.813 207.134C238.765 207.423 238.717 207.615 238.717 207.712C239.968 207.423 241.123 207.279 242.567 207.423C242.326 207.423 244.444 207.664 245.07 208.097L245.695 208.482L246.08 208.722L246.851 209.492L247.524 210.696L247.909 211.658C247.957 211.995 247.621 212.573 247.621 212.861L247.669 214.017C247.669 214.257 247.669 214.402 247.621 214.402C247.572 214.594 247.524 214.835 247.476 215.172C247.476 215.364 247.236 215.749 247.187 216.038L246.177 217.578L245.359 218.444L242.952 221.332L241.653 221.91C239.535 224.124 238.524 224.557 237.129 225.134C236.31 225.279 236.022 224.797 235.877 224.797C235.588 224.749 235.011 225.134 234.578 224.797C233.952 224.653 234.241 223.498 234.77 223.161C235.685 222.391 237.899 220.755 239.198 219.263L241.364 217.241L241.893 215.075L242.278 214.065L242.567 212.428L241.99 211.273L241.123 210.696Z" fill="white"/>
<path d="M192.731 191.733L192.539 191.492L192.972 191.3L193.645 191.444L194.704 191.059L195.137 190.867L195.667 191.155L196.581 191.059L197.063 191.3L198.025 191.589L198.892 192.455L199.325 192.984C199.758 193.658 199.228 194.188 199.277 194.861L199.036 195.487L198.555 195.92L197.544 195.824L196.581 195.68L196.244 195.102L195.811 194.621L194.993 194.284L194.271 193.947L193.886 193.851L193.26 193.754L193.068 193.273L192.827 192.888L192.298 192.744L192.057 192.262L192.731 191.733ZM186.667 198.519L187.052 198.423L188.014 199L188.881 199.482L190.758 199.722L191.913 199.53H192.346L192.972 199.289L193.934 199.385L194.945 198.664L196.196 198.279L197.544 197.364H197.977L199.036 196.835L200.143 196.065L201.25 195.968L202.116 195.631L202.886 195.872H203.656L204.474 195.968H205.1L205.87 196.498V197.412L205.774 197.845L205.245 198.423L204.619 198.712L204.041 199.337L203.512 199.53L202.116 200.156L201.49 200.733L201.442 200.974L201.972 201.503L203.031 202.466L203.753 203.043L203.849 203.861L203.704 203.91L203.608 204.92L203.223 205.546L201.924 206.268L201.009 207.086L200.817 207.615L200.576 207.952L200.865 208.386L200.961 208.963C200.72 209.685 200.143 210.118 199.95 210.888C199.758 211.081 199.662 211.899 199.662 212.091L200.047 212.188L201.009 211.514L203.319 210.744L204.282 209.781L205.1 209.637L206.015 209.156L206.881 209.059L208.854 208.097L209.913 208.289L211.116 207.952L211.309 207.327L211.068 206.364L211.405 204.391L211.309 203.284L211.068 202.418L210.972 200.974L210.827 199.434L210.924 197.749L210.587 196.498L209.865 194.813L209.191 194.621L208.469 193.514L208.902 192.744L209.672 192.311L210.587 192.07L211.357 192.262H212.368L212.993 193.032L213.86 193.369L214.87 194.236L215.737 194.765L215.688 196.402L215.592 197.797L215.448 199L215.785 200.589L215.352 201.792L215.448 204.68L215.688 206.557L215.448 210.214L214.774 211.61L214.678 212.236L213.86 213.632L212.608 214.546L212.127 213.968L211.597 213.439L211.357 212.525L211.405 211.466L210.491 212.091L209.191 212.332C209.191 212.332 207.603 212.717 207.458 212.717C207.314 212.669 206.64 213.198 206.64 213.198L205.148 213.15L202.164 214.113L200.72 214.69L198.121 215.509L196.726 215.749L196.244 216.279L195.234 216.808L194.367 217.097L192.924 217.193C192.924 217.193 192.202 217.626 192.009 217.771C191.72 218.011 190.806 218.396 190.517 218.637C189.988 219.022 189.266 219.215 188.688 218.733C188.448 218.589 187.341 217.771 186.907 217.53C186.571 217.337 186.186 217.145 186.186 216.76C186.186 216.519 186.33 215.99 186.426 215.749L187.726 215.701L188.688 215.653L189.891 215.075L191.383 214.835L192.154 214.402L193.212 214.209L194.608 213.439L195.715 212.525L196.389 211.514L196.822 210.648L196.918 209.829L196.726 209.878H195.859L194.801 210.022L194.127 209.493L193.02 209.348L192.442 208.145L192.298 207.375V206.942L192.635 206.075L193.405 205.45L193.694 204.583L194.079 203.958L194.367 203.428L195.089 202.658L194.079 202.61L193.068 202.803L191.287 202.562L191.047 202.418L189.891 202.129L189.362 201.84L188.736 201.262L188.014 201.07L187.726 200.348L187.341 200.204L186.956 200.059L186.715 199.434L186.619 198.904L186.667 198.519ZM198.266 202.321L197.688 202.706L197.4 203.332L196.966 203.669L196.918 204.198L196.581 204.68L196.533 204.92L196.389 205.257L196.918 206.364L198.266 205.546L198.795 204.535L199.421 204.487L199.95 203.717L199.613 202.899L199.325 202.273L198.795 202.081L198.266 202.321ZM197.111 220.273L197.4 219.84L198.506 219.792L199.517 219.696L201.009 219.118L201.731 218.637L202.742 218.589L204.763 217.674L205.245 217.289L206.207 216.616L207.41 215.701L208.517 215.845L209.961 215.605L213.234 217.001L213.763 218.252V219.648L213.33 220.755L213.426 222.102V223.546L213.041 224.412L212.897 226.338L211.934 227.926L211.79 228.888L210.731 230.332L209.335 231.247H208.421L207.795 231.054L206.929 230.092L207.025 229.418L207.555 229.129L208.18 228.07L208.228 226.819L208.71 225.904L208.758 224.653L208.806 223.739L208.902 222.054L208.999 220.321L208.036 220.081L206.64 220.514L205.87 221.043L204.571 221.477L203.704 221.765L202.068 222.632L201.057 222.776L200.143 222.584L199.277 222.632L198.603 221.91L197.833 221.477L197.207 220.755L197.111 220.273Z" fill="white"/>
<path d="M151.314 206.557C151.507 206.268 151.699 205.835 152.18 205.787C152.325 205.738 152.517 205.787 152.614 205.931C152.999 206.268 153.528 206.316 154.057 206.316C154.587 206.364 155.164 206.316 155.646 206.172C156.031 206.027 156.416 206.075 156.801 205.883C156.993 205.787 157.138 205.642 157.426 205.498L159.063 205.017L159.496 204.535L160.218 204.295L160.892 204.198L161.229 204.006L161.902 203.38L162.624 203.284L163.828 203.236L164.598 203.91L164.886 204.583L165.079 205.257L165.608 204.872L167.293 204.054L168.544 203.573L169.892 202.851L170.758 202.033L170.566 201.263L169.988 200.3L168.592 199.241L168.352 198.712C168.352 198.712 168.4 198.086 169.17 198.086C169.94 198.086 171.143 198.423 171.143 198.423L171.961 198.567L173.501 199.386L173.935 200.348V201.07L174.272 202.995L174.512 204.15L174.32 205.209L174.705 206.364L174.464 208.241V208.915L174.32 212.14L174.512 213.247L174.32 213.92L173.935 216.086L174.127 216.904L173.646 217.626L172.395 217.386L171.288 216.808L171.047 216.086L170.999 214.305L170.421 212.477L169.362 212.765L168.592 213.295L167.148 213.969L165.897 214.113L164.405 214.305L164.213 214.402V214.546C164.213 215.316 163.972 215.846 163.731 216.231C163.683 216.567 163.587 216.856 163.443 217.145C163.25 217.289 163.346 217.289 163.443 217.53C163.491 217.626 163.539 217.771 163.587 217.915C163.587 217.915 163.635 217.963 163.635 218.011C163.635 218.011 163.587 218.011 163.587 218.059C163.106 218.348 162.865 218.781 162.769 219.263C162.673 219.551 161.71 219.407 161.71 219.407L160.795 219.118L160.555 218.493L160.266 217.771V216.952L160.555 215.124C160.603 214.739 160.459 214.402 160.603 214.017C160.699 213.632 160.892 213.198 160.651 212.862C160.603 212.669 160.603 212.043 160.555 211.899L160.844 210.985C160.94 210.744 161.084 210.455 160.988 210.118C160.94 210.07 160.507 209.829 160.507 209.781L160.699 208.097L159.929 208.337L159.111 208.819L158.63 208.963C158.245 209.059 157.86 209.396 157.523 209.733C157.523 209.878 156.801 210.022 156.753 210.022C156.56 210.022 155.213 210.118 155.213 210.214C154.972 209.781 154.202 210.166 153.721 210.022L152.902 209.637L152.517 209.348L152.421 208.963L151.507 208.434C151.507 208.434 151.362 207.856 151.122 207.567C150.881 207.279 151.314 206.557 151.314 206.557ZM164.405 208.386V208.578L164.357 209.011L164.598 209.781V210.455L164.79 211.081L164.694 211.755L165.127 211.37L166.667 210.648L167.63 210.166L168.207 210.118L168.977 209.396L169.555 208.578L171.047 208.049V204.968L170.132 205.642L168.977 206.46L168.448 206.701L167.293 207.423L166.475 207.952L165.512 208.193C165.512 208.193 164.935 208.241 164.405 208.386ZM174.223 194.188L174.608 193.706L175.812 193.321H177.448L178.17 193.706H178.892L181.683 194.188L182.213 195.535C182.213 195.535 181.78 196.113 181.78 196.305C181.78 196.498 181.539 197.412 181.539 197.412L181.635 198.471L182.068 199.337L181.924 200.444L182.02 204.92L182.068 206.509L182.165 207.471L182.068 208.145L182.357 209.685L182.694 210.503L182.598 212.38L182.742 214.161L182.79 215.557L182.742 218.974L182.983 219.503L182.838 220.466L182.646 221.958L182.116 222.969L181.683 224.461L180.047 228.359L179.277 229.37L178.651 229.851L177.785 230.814L177.496 230.188C177.496 230.188 176.967 230.236 176.582 229.707C176.197 229.129 177.015 228.07 177.015 228.07L177.689 227.3L177.544 226.193V224.605L177.592 222.68L177.785 221.14L177.833 218.974L178.17 218.493L178.026 213.824L177.833 211.177L177.689 208.867V208.337L178.17 207.712L177.977 206.22L177.833 205.835L178.17 205.546L177.881 202.899L177.544 201.888L178.122 199.674L177.929 198.76L177.352 196.353L176.485 195.343L175.764 195.006C175.764 195.006 174.897 194.91 174.608 194.765C174.32 194.669 174.223 194.188 174.223 194.188Z" fill="white"/>
<path d="M117.475 195.632L117.86 195.198L118.822 195.006H119.303C119.303 195.006 119.64 195.006 120.025 194.861C120.122 194.861 120.362 194.813 120.362 194.813L120.844 194.525H121.565L122.48 194.669L123.539 194.958L124.309 194.476L125.32 194.332L126.282 194.476L126.763 194.621V195.006L127.148 195.439V196.69L126.619 197.22L126.138 197.316L125.512 197.701L124.983 197.942L124.549 198.038L124.164 197.894L123.202 198.423L122.528 198.279L122.239 198.134L121.469 197.894H121.229L119.977 197.509L119.352 196.931L118.63 196.835L118.341 196.594L118.052 196.161H117.619L117.475 195.632ZM129.314 200.011L129.844 200.493L129.314 201.166V201.696L129.025 202.562L128.352 203.188L127.822 203.717L127.1 204.006L126.33 204.439L125.801 205.113L126.523 205.787L127.389 206.22L128.015 207.182L128.544 207.567V208.097L128.448 209.3L127.918 210.166V211.081L127.293 212.38L126.475 212.958C126.475 212.958 125.705 213.487 125.464 213.872C125.223 214.305 124.405 214.305 124.405 214.305L123.635 214.787H122.095L121.229 215.124H120.459L119.833 215.364L118.822 214.979L118.196 214.546L117.86 214.354L117.715 213.776L117.186 213.006L117.09 212.573V211.803C117.09 211.803 117.475 210.551 117.523 210.311L117.811 209.108L118.341 208.097L119.207 207.423V206.942L118.293 206.894L117.571 207.134L116.271 207.375L115.405 207.182L113.913 207.231L113.528 206.846L112.95 207.231L112.517 206.749L112.229 206.46V205.787L112.95 205.209L113.384 204.969L114.442 204.728L114.924 204.776L115.983 204.632L116.704 204.198L117.715 203.669L119.111 203.236L120.17 202.514L120.651 202.129L122.624 201.551L123.057 201.118L123.683 200.059L123.972 200.156L125.705 199.434L127.389 199.578H128.64L129.122 199.819L129.314 200.011ZM124.501 209.974L125.127 209.396L125.223 208.578L124.646 208.434L124.309 208.001L124.598 207.616L124.646 207.327L124.213 206.605L123.683 206.172L122.961 206.749L122.817 207.76L122.384 208.241L121.854 209.156L121.421 209.396L121.084 210.118L121.277 210.696L121.565 211.081L122.432 211.033L123.443 210.744L124.501 209.974ZM140.288 201.407C140.432 201.359 140.576 201.263 140.769 201.214C141.058 200.974 141.298 200.733 141.539 200.541C141.731 200.396 141.972 200.252 142.213 200.108C142.405 200.011 142.598 199.963 142.742 199.963C142.935 200.011 143.127 199.915 143.32 199.722C143.416 199.626 143.512 199.578 143.608 199.482L144.186 199.626L144.86 199.386L145.485 199.337L146.4 199.289L146.737 198.952L148.084 198.856L148.566 199.097L149.913 199.53L150.78 200.829L150.346 201.455L150.202 202.466L149.432 203.332L148.421 203.717L147.892 203.765L147.362 204.295L145.774 204.102L144.764 204.198L144.186 204.247L142.261 204.054L140.865 203.91H140.239L140.288 205.883L139.517 207.664L138.747 209.348L137.833 211.37L136.582 211.995L135.86 211.755L135.427 210.503L135.378 207.712L135.571 206.46L135.619 204.68L135.427 203.236V200.878L135.09 199.578V198.471L135.138 197.172V195.872L134.223 194.765L133.213 194.236C133.068 194.236 132.924 194.188 132.828 194.091L132.539 193.947C132.443 193.947 132.394 193.947 132.394 193.899C132.346 193.899 132.346 193.803 132.346 193.61C132.346 193.514 132.298 193.466 132.298 193.369L132.731 192.792L134.079 191.781L135.138 191.252L135.86 191.733H137.592L138.747 192.551L139.999 193.947L140.047 195.054L139.999 196.209L140.143 198.664L140.191 200.444L140.288 201.407ZM122.528 218.685L123.25 217.819L124.598 218.108L125.897 218.541L127.004 219.455L127.582 220.851L127.918 221.573L128.737 221.284L129.603 220.947L130.229 220.322L130.951 220.562L132.202 219.696H134.079L134.897 220.129L135.138 221.188V222.054L134.32 223.306L133.453 223.594L132.202 223.691L130.951 223.546L129.651 223.354L128.352 223.257H128.303L128.496 223.498L128.544 225.423L127.918 226.819V228.311L127.485 229.803L126.475 230.669H125.849L124.164 229.466L124.453 228.552L124.79 227.3L124.501 225.375L124.164 224.557L123.876 223.113V221.958L123.298 221.38V220.562L122.865 219.455L122.528 218.685ZM132.683 213.68L132.972 213.199L133.598 213.006L134.175 213.15L136.389 212.91L137.881 213.247L138.988 214.305L139.373 214.498L139.903 215.268L140.288 217.001V218.011L140.239 219.166V220.37L140.48 221.669L140.239 222.776V223.883L139.903 224.99V226.29L138.94 227.348L138.988 229.225L138.362 230.669L137.352 231.151L136.63 231.247L136.1 230.862L135.619 230.477L135.042 230.188L134.368 230.332L133.694 230.044H132.106L131.528 229.659H130.566L129.314 229.322L128.544 228.455V227.685L129.218 227.396L130.951 226.915H133.02L134.656 226.386L135.282 226.049L135.427 225.423L135.763 224.172L136.052 223.354C135.86 222.872 135.86 222.824 135.86 222.68C135.763 222.584 135.571 222.343 135.571 222.247C135.475 222.199 135.571 222.054 135.763 221.814C135.86 221.717 135.956 221.573 136.052 221.477L136.004 220.081L135.667 218.3L135.138 217.145V216.279H134.801L133.213 214.691L132.683 214.209V213.68Z" fill="white"/>
<path d="M97.0578 198.664L98.646 198.808L100.282 198.423H101.101L101.774 198.134L102.448 198.182L103.218 197.99L103.651 198.038L104.277 198.086L105.24 198.615L105.625 199L106.25 199.193L107.165 199.867L107.261 200.829L107.502 201.744L107.02 202.562L106.106 202.754L105.336 202.562L104.373 202.658L103.315 202.706L101.774 202.514L100.571 201.984L99.5605 201.84L99.0311 201.599L97.6835 200.926L96.9615 200.541L95.8064 200.492L95.277 201.022L94.3626 201.888L93.8332 202.466L93.015 203.38L92.6781 204.198L92.1487 204.631L91.523 205.017L90.6567 205.787L89.4534 206.845L88.7796 207.182L88.154 207.327L87.1914 207.904L86.1807 208.193L85.4106 208.867L84.8812 208.915C84.2555 208.722 83.3411 208.145 83.678 207.615L84.1593 206.557C85.2181 206.46 86.5657 205.113 87.5764 203.765L88.4909 202.754L90.0791 201.888L90.5123 200.926L91.5711 199.867L92.1005 199.337L92.6299 198.134L93.6888 197.027L94.0738 196.113L92.8706 196.594L91.523 196.738L89.9829 197.172L88.539 197.075L87.6246 196.931L86.3732 196.401H85.555L84.7368 195.872L84.6887 194.909L85.0737 194.476L85.6994 194.38L86.2769 194.524L86.9026 194.428L87.432 194.524L88.0096 194.236L89.3572 193.899L90.5604 193.851L91.7155 193.369L92.6781 193.225L93.4 192.647L93.7369 192.262L94.4107 192.214L94.9401 191.829L95.277 191.396L96.384 191.059L97.4909 191.348H97.876L99.1273 191.3L99.7049 191.492L100.379 192.118L100.186 193.61V194.284L99.6567 195.15L99.4642 196.161L98.8385 196.883L98.0685 197.942L97.154 198.519L97.0578 198.664ZM86.662 212.621L88.0096 212.284L89.2609 211.755L90.4642 211.37L92.4374 210.936L93.5444 210.599L94.1219 209.926L94.5551 209.3L94.7957 208.674L94.6513 207.952L95.0364 207.519L95.0845 207.038C95.1326 206.99 95.1808 206.894 95.1808 206.797C95.2289 206.749 95.2289 206.701 95.2289 206.605C95.277 206.605 95.3251 206.557 95.3251 206.46C95.4695 206.316 95.4695 206.123 95.3733 205.883C95.3251 205.738 95.2289 205.594 95.1326 205.402L94.892 204.198C94.7476 203.861 94.7476 203.621 94.7957 203.525C94.8439 203.476 94.7957 203.428 94.7957 203.332C94.8439 203.332 94.892 203.284 94.892 203.188C95.0364 202.995 95.1808 202.899 95.277 202.899C95.4695 202.899 95.6139 202.947 95.7102 202.947C95.9027 203.043 96.0471 203.091 96.1915 203.14C96.384 203.236 96.5765 203.284 96.769 203.332C97.0097 203.428 97.2984 203.476 97.4909 203.525L98.0204 203.861L98.8867 204.198L99.1754 204.776L99.0311 206.364L98.646 207.279L98.5979 207.904L98.6942 208.674L98.5498 209.156L99.753 208.867L100.764 208.337L101.726 208.241L103.266 207.712L105.336 207.23L106.395 207.038L107.309 206.605L108.994 206.749L110.389 207.134L112.122 206.99L113.518 207.712L113.758 208.53V209.444L111.93 210.311H110.823L109.09 210.936L108.031 211.177L105.721 211.466H102.737L99.3198 212.188L97.1059 212.621L95.3251 213.776L93.3037 214.498L90.5604 215.172L89.3572 215.364L88.0096 215.942L86.9026 216.519L85.7475 216.808L84.5443 217.53L82.6673 217.915L81.3197 217.771L80.1646 217.626L78.3357 216.808L76.8919 216.327L76.6993 215.845L76.1699 215.316L76.5068 214.787L77.2288 214.353H79.5871L80.4052 214.257L82.5229 213.583L85.1219 212.958L86.662 212.621ZM99.8492 220.081L99.4642 219.503L98.646 219.407L98.4054 219.455L97.2503 220.225L96.3358 221.092L95.0364 222.102L93.9294 222.824L93.4 223.931V224.701L93.9294 225.471L95.0364 225.76C95.2289 225.76 95.4214 225.712 95.5658 225.664C95.9508 225.616 96.1915 225.616 96.384 225.712C96.4802 225.808 96.5284 225.808 96.6246 225.76C96.769 225.76 97.3466 225.76 97.4428 225.712C97.5872 225.712 97.7316 225.664 97.8278 225.567L98.9348 224.075L99.9455 223.402L100.379 222.391V221.043L99.8492 220.081ZM101.149 216.567L102.256 218.011C102.4 218.3 102.544 218.493 102.641 218.637C102.737 218.829 102.833 218.926 102.929 219.022C103.026 219.166 103.122 219.214 103.122 219.214C103.17 219.214 103.266 219.311 103.363 219.455C103.507 219.648 103.651 219.792 103.796 219.985L104.373 220.706L104.71 221.813C104.758 222.15 104.758 222.439 104.758 222.728V223.402C104.758 223.642 104.758 223.787 104.71 223.787C104.662 223.979 104.614 224.22 104.518 224.557C104.518 224.749 104.47 224.99 104.421 225.182L103.074 226.53L101.871 227.252L100.523 228.792L99.2236 229.177C99.1754 229.177 99.0792 229.225 98.8867 229.322C98.7904 229.418 98.646 229.562 98.4535 229.658L97.7797 230.188H94.2663L92.1968 230.477L90.6567 229.995L88.9722 229.033L88.4427 227.733L88.2021 226.049L89.1647 224.075L89.6941 222.535L90.8011 221.332L91.7636 220.418L93.2075 219.503L94.4588 218.011L96.2877 216.471L97.6353 216.375L99.2236 215.701L100.138 215.99L101.149 216.567Z" fill="white"/>
<path d="M48.6259 194.958L49.5885 194.813L51.6099 195.343L53.1019 195.246L53.9201 194.91L55.8452 194.813L57.4816 194.284L58.3479 193.706L59.6474 194.091L59.7918 195.006L60.3212 195.824C60.2731 197.22 59.1661 197.557 58.5886 198.279H57.3372L55.2196 198.615L54.0645 198.471L52.0912 198.23L51.658 197.749L50.5992 197.508L49.8773 196.835L48.8184 196.257L48.4815 195.631L48.6259 194.958ZM45.4013 202.369H45.9307L46.7489 201.936H46.9414L47.9521 202.321L49.2035 202.418L50.5511 202.947L51.9949 202.562L52.5725 202.321L53.6313 202.273L54.2089 201.696L56.0378 201.455L56.9041 200.974L58.3961 200.733L60.2249 200.3C61.0913 201.07 60.8025 201.455 60.2249 202.369C60.0324 202.706 59.9843 203.284 59.9843 203.621L59.2624 204.535L58.2517 205.161L57.3372 205.402L57.0003 205.642L55.1714 205.787L54.3532 205.738C53.5351 205.161 52.6687 205.305 51.8506 205.257L51.8024 205.738L51.7543 206.99L51.0324 208.53L51.0805 208.819L50.9842 210.118C50.888 210.985 51.8024 211.658 52.6687 210.985L54.7864 210.166L55.9896 209.204L56.9522 208.963L58.5404 208.001L61.4763 207.327L62.5833 206.845L64.6047 206.797L65.856 207.134L66.0485 207.086L66.241 208.145L65.2303 209.252L64.9897 210.07L63.8827 211.081L60.5618 212.043L60.2249 214.787L59.7918 215.749L58.9255 217.097C58.7811 217.337 58.6367 217.53 58.5404 217.626C58.4442 217.819 58.2998 217.915 58.2035 218.011C58.0592 218.108 57.9629 218.204 57.9148 218.252C57.7223 218.444 57.626 218.733 57.5779 219.166C57.4816 219.407 57.4816 219.648 57.4816 219.936L58.4442 219.84C58.6848 219.84 58.9736 219.792 59.3105 219.792H60.1768C60.4656 219.792 60.8025 219.84 61.1394 219.84L62.6795 219.503L64.0752 219.744L65.3266 219.311L66.0004 219.696H67.8774L69.7063 219.744L70.8614 219.84L72.209 220.177L73.2678 220.658L74.2785 220.899L75.0967 220.947L75.6743 221.91L75.0005 222.92L74.3267 223.835L71.9684 224.701L70.2838 224.749C69.8026 224.846 69.3694 224.894 68.9844 224.894C68.5993 224.942 68.3106 224.942 68.0699 224.942C67.7812 224.99 67.5886 224.99 67.5405 224.99C67.4443 224.99 67.2999 224.942 67.2036 224.797C67.1074 224.749 67.0592 224.653 67.0592 224.557L63.3533 223.931L61.5244 224.172L60.3212 224.027L58.4442 223.979L57.2891 224.316L55.5565 224.461L54.1607 224.172L51.1768 225.471L50.2623 225.712L49.0591 225.808L47.1821 226.771L45.9789 226.915L45.4013 227.396L43.6205 227.83L41.5991 228.118L40.9735 227.685L39.289 226.145L38.2301 225.664C38.1339 225.471 38.1339 225.327 38.182 225.182C38.182 224.894 38.3264 224.701 38.6633 224.557C38.9521 224.461 39.2408 224.412 39.4815 224.412H39.8184L41.3104 224.509L43.4762 224.076L44.0056 223.787L44.4869 223.546L45.9789 223.354L46.412 222.969L47.2783 222.632L48.6741 222.006H49.6366L50.4067 221.717L51.8024 220.947L53.0056 220.61V220.177L53.6313 219.455L54.2089 218.156L54.8827 217.674V216.616L55.1714 216.182C55.3158 215.894 55.4602 215.605 55.5565 215.316C55.5565 215.172 55.5565 214.979 55.5083 214.739C55.4602 214.642 55.3639 214.498 55.3158 214.354L54.4495 214.594L52.8613 215.557L50.4067 216.375L48.2409 216.279L47.1821 215.605L46.9414 214.017L46.797 213.391V211.899L47.519 210.118L47.6152 209.444L47.4708 206.268L47.0377 205.209L46.7489 204.68L45.8345 203.765L45.6901 203.332L45.2088 202.754L45.4013 202.369Z" fill="white"/>
<path d="M11.4065 195.824L11.8397 195.391L12.8022 195.15H13.476L14.4867 195.343L15.9787 194.717L17.1819 194.573L18.0964 193.899L18.7221 193.129L19.9734 192.503L20.8397 191.877L22.2355 192.118L24.1606 191.541L25.6045 191.685L26.6633 192.455L27.8665 192.647L28.2034 193.803L28.1072 195.295L27.5296 196.402L27.1446 197.701L26.3745 198.471L26.182 201.07L25.7007 202.177V202.562L26.6633 201.936L28.5403 201.744L29.551 201.118L31.428 200.974L33.8826 200.877L35.9521 201.263L37.3479 202.177L37.781 203.091L37.1554 203.573L36.0965 203.813L34.6045 204.872L32.92 205.498L32.0537 205.353L30.8024 206.22L28.8291 206.46L25.5563 206.749L25.3638 207.279L25.0751 208.722L25.2676 210.311L24.9788 211.899L24.5456 212.958L23.7756 214.065L23.3424 214.931L24.4494 214.739L25.9414 214.402L26.9039 214.739L27.4815 215.22L28.0109 215.412L28.7328 215.942L28.8291 216.664L29.2141 217.723V218.252L29.4066 219.215C29.2622 219.648 29.0216 220.081 29.0216 220.466C28.9735 220.851 28.8291 221.621 28.8291 222.102C28.781 222.584 28.8291 223.065 28.781 223.546C28.6847 224.605 28.4441 225.664 28.059 226.674C27.8665 227.156 27.6259 227.685 27.3852 228.166C27.1927 228.552 26.9521 228.985 26.8558 229.37C26.8077 229.755 26.8558 230.284 26.7596 230.621C26.6152 230.91 26.3745 231.102 26.2301 231.295H25.797L24.6419 231.872L23.8718 231.15L23.5831 230.284L23.8237 229.658L23.4387 228.792L23.8237 228.648V227.445C23.8237 227.3 24.1606 227.108 24.2087 226.963C24.2569 226.674 23.92 226.386 24.1125 226.049C24.2087 225.953 24.2569 225.856 24.2569 225.76C24.3531 225.616 24.2569 225.375 24.2569 225.231C24.2569 224.797 24.4013 224.412 24.4494 223.979C24.4975 223.642 24.4975 223.354 24.4494 223.065C24.4494 221.91 24.3531 221.621 24.4013 220.514L24.5456 219.551H23.7274C23.3424 219.455 22.7649 219.744 22.3798 219.84L20.7916 220.129C20.2141 220.225 19.7328 220.61 19.2034 220.707C19.0108 220.755 18.8664 220.755 18.6739 220.803C18.4814 220.947 17.7595 221.188 17.5188 221.332C17.1819 221.525 16.7969 221.188 16.4119 221.284C16.0269 221.428 15.7862 221.765 15.3049 221.862C15.0643 221.91 14.7274 221.958 14.4386 221.958L14.198 221.717L13.3316 221.91L11.9359 221.813L11.599 220.995L11.7434 220.562L11.5509 220.081L12.1766 219.359C12.8022 219.215 13.3798 218.974 14.0536 218.83C14.4867 218.685 14.8236 218.493 15.2087 218.3C15.69 218.108 16.2675 218.108 16.7488 217.819C17.3263 217.53 18.2889 216.904 18.9146 216.712C18.9627 216.664 19.1071 216.616 19.2515 216.616L19.444 215.894L20.0215 214.594L20.5028 213.295L20.551 212.284L20.4066 211.081L20.4547 209.974L19.8772 208.867L19.2515 208.722L17.2782 209.829L16.0269 210.84L15.4012 210.888L14.1017 211.129L12.1284 211.755L11.1659 212.188L9.91451 212.236L9.0482 213.102L7.60433 213.632L5.77544 213.102L2.69521 213.198L1.15509 212.525L0.240643 211.803L0 210.792L0.240643 210.263L1.0107 210.792L2.26205 210.359H2.83959L3.65778 210.792L4.81287 210.455L6.5455 209.974L9.86638 208.963L10.6364 208.145L11.5028 207.712L12.5616 207.375L13.6204 206.845L15.8343 205.642L16.9413 205.546L17.952 205.113L18.4333 204.632L19.3477 204.102L20.6472 203.717L21.2248 203.621L21.1766 202.466L21.8504 201.455L22.0429 199.289L22.2355 197.845L21.8504 197.027L20.5991 197.942L19.1552 198.375L17.4707 198.327L15.8825 198.279L15.0162 197.749H14.0536L13.2354 197.316L12.5135 197.075L11.599 196.979L11.214 196.642L11.4065 195.824Z" fill="white"/>
<path d="M293.684 255.541V254.078C293.684 252.153 294.223 250.979 295.802 249.323C297.419 247.61 297.881 246.589 297.881 245.338C297.881 244.125 297.457 243.798 296.783 243.798C296.11 243.798 295.686 244.163 295.686 245.126V246.57H293.684V245.261C293.684 243.105 294.762 241.873 296.841 241.873C298.92 241.873 299.998 243.105 299.998 245.261C299.998 246.859 299.344 248.283 297.38 250.362C296.11 251.71 295.782 252.384 295.782 253.327V253.616H299.806V255.541H293.684Z" fill="white"/>
<path d="M285.963 255.541V254.078C285.963 252.153 286.502 250.979 288.081 249.323C289.698 247.61 290.16 246.589 290.16 245.338C290.16 244.125 289.736 243.798 289.062 243.798C288.389 243.798 287.965 244.163 287.965 245.126V246.57H285.963V245.261C285.963 243.105 287.041 241.873 289.12 241.873C291.199 241.873 292.277 243.105 292.277 245.261C292.277 246.859 291.623 248.283 289.659 250.362C288.389 251.71 288.061 252.384 288.061 253.327V253.616H292.085V255.541H285.963Z" fill="white"/>
<path d="M281.361 255.734C279.282 255.734 278.146 254.502 278.146 252.345V245.261C278.146 243.105 279.282 241.873 281.361 241.873C283.441 241.873 284.576 243.105 284.576 245.261V252.345C284.576 254.502 283.441 255.734 281.361 255.734ZM281.361 253.808C282.035 253.808 282.459 253.443 282.459 252.48V245.126C282.459 244.163 282.035 243.798 281.361 243.798C280.688 243.798 280.264 244.163 280.264 245.126V252.48C280.264 253.443 280.688 253.808 281.361 253.808Z" fill="white"/>
<path d="M270.545 255.541V254.078C270.545 252.153 271.084 250.979 272.663 249.323C274.28 247.61 274.742 246.589 274.742 245.338C274.742 244.125 274.318 243.798 273.644 243.798C272.971 243.798 272.547 244.163 272.547 245.126V246.57H270.545V245.261C270.545 243.105 271.623 241.873 273.702 241.873C275.781 241.873 276.859 243.105 276.859 245.261C276.859 246.859 276.205 248.283 274.241 250.362C272.971 251.71 272.643 252.384 272.643 253.327V253.616H276.667V255.541H270.545Z" fill="white"/>
<path d="M262.006 249.766V247.841H266.241V249.766H262.006Z" fill="white"/>
<path d="M251.492 255.541V254.078C251.492 252.153 252.031 250.979 253.61 249.323C255.227 247.61 255.689 246.589 255.689 245.338C255.689 244.125 255.265 243.798 254.592 243.798C253.918 243.798 253.494 244.163 253.494 245.126V246.57H251.492V245.261C251.492 243.105 252.57 241.873 254.649 241.873C256.729 241.873 257.807 243.105 257.807 245.261C257.807 246.859 257.152 248.283 255.188 250.362C253.918 251.71 253.591 252.384 253.591 253.327V253.616H257.614V255.541H251.492Z" fill="white"/>
<path d="M244.571 255.541L247.959 243.99H243.686V242.065H250.039V243.913L246.727 255.541H244.571Z" fill="white"/>
<path d="M239.098 255.734C237.019 255.734 235.941 254.502 235.941 252.345V252.095H237.943V252.48C237.943 253.443 238.367 253.808 239.04 253.808C239.791 253.808 240.215 253.443 240.215 252.153V249.573H240.176C239.81 250.343 239.194 250.747 238.251 250.747C236.692 250.747 235.902 249.65 235.902 247.667V245.261C235.902 243.105 237.038 241.873 239.117 241.873C241.197 241.873 242.332 243.105 242.332 245.261V252.23C242.332 254.502 241.293 255.734 239.098 255.734ZM239.117 248.822C239.849 248.822 240.215 248.399 240.215 247.494V245.107C240.215 244.221 239.849 243.798 239.117 243.798C238.386 243.798 238.02 244.221 238.02 245.107V247.494C238.02 248.399 238.386 248.822 239.117 248.822Z" fill="white"/>
<path d="M231.368 255.541V245.261H229.154V243.759C230.945 243.759 231.58 243.374 232.061 242.065H233.486V255.541H231.368Z" fill="white"/>
</svg>
