<?xml version="1.0" encoding="utf-8"?>
<!-- Generator: Adobe Illustrator 28.1.0, SVG Export Plug-In . SVG Version: 6.00 Build 0)  -->
<svg version="1.1" id="레이어_1" xmlns="http://www.w3.org/2000/svg" xmlns:xlink="http://www.w3.org/1999/xlink" x="0px"
	 y="0px" viewBox="0 0 282 56" style="enable-background:new 0 0 282 56;" xml:space="preserve">
<style type="text/css">
	.st0{fill:#FFFFFF;}
	.st1{fill:#153D72;}
</style>
<path class="st0" d="M21.9,24.2c0,0.5,0,0.9-0.1,1.2c-0.1,0.4-0.2,0.7-0.3,1c-0.2,0.3-0.4,0.5-0.7,0.6c-0.3,0.1-0.7,0.2-1.1,0.2
	h-1.9v-6.6H3.6v-2c0-0.2,0.1-0.4,0.3-0.7c0.1-0.2,0.3-0.3,0.6-0.3H11v-3H0.7v-2c0-0.2,0.1-0.5,0.3-0.7c0.2-0.2,0.4-0.3,0.7-0.3h23.9
	v2c0,0.2-0.1,0.5-0.3,0.7c-0.2,0.2-0.4,0.3-0.7,0.3h-9.4v3h6.8V24.2z M22,4c0,0.4,0,0.9,0,1.5c0,0.6,0,1.2-0.1,1.9
	c-0.1,0.7-0.1,1.3-0.2,1.9c-0.1,0.6-0.3,1.1-0.5,1.5h-3.9c0.1-0.2,0.2-0.5,0.3-0.9c0.1-0.3,0.1-0.7,0.2-1.1c0-0.4,0.1-0.7,0.1-1.1
	c0-0.3,0-0.7,0-0.9V4.9H3.7V2.7c0-0.2,0.1-0.4,0.3-0.5C4.2,2,4.4,1.9,4.6,1.9H22V4z M37.2,20.6l-4.2-4.3c-0.7,0.7-1.4,1.3-2.1,1.9
	c-0.7,0.5-1.4,1-2,1.3c-0.7,0.4-1.2,0.7-1.7,0.9c-0.5,0.2-0.9,0.4-1.1,0.5v-2.9c2.4-1.6,4.2-3.4,5.4-5.3c1.2-1.9,1.8-3.8,1.8-5.7
	V6.2h-6.3v-2c0-0.2,0.1-0.5,0.3-0.7c0.2-0.2,0.4-0.3,0.7-0.3h9.4v3c0,1.6-0.2,3-0.7,4.3C36.3,11.8,35.7,13,35,14l4.3,4.4L37.2,20.6z
	 M43.7,1.5v22.2c0,0.5,0,0.9-0.1,1.2c-0.1,0.4-0.2,0.7-0.3,1c-0.2,0.3-0.4,0.5-0.7,0.6c-0.3,0.2-0.7,0.2-1.1,0.2h-1.7V12.7h-2.5v-2
	c0-0.3,0.1-0.5,0.3-0.7c0.2-0.1,0.4-0.2,0.7-0.3h1.6V3.2c0-0.7,0.1-1.2,0.5-1.4c0.3-0.2,0.8-0.3,1.5-0.3H43.7z M49.2,1.2v22.7
	c0,0.5,0,0.9-0.1,1.2c-0.1,0.4-0.2,0.7-0.3,0.9c-0.2,0.3-0.4,0.5-0.7,0.6c-0.3,0.2-0.7,0.2-1.1,0.2h-1.7v-24c0-0.7,0.1-1.1,0.5-1.4
	c0.3-0.2,0.8-0.3,1.4-0.3H49.2z M63,3.3v3.7c0,2-0.3,3.7-0.8,5.2c-0.6,1.5-1.4,2.8-2.3,4c-1,1.1-2.1,2.1-3.4,2.9
	c-1.3,0.8-2.8,1.4-4.3,1.9v-2.9c0.1,0,0.3-0.1,0.7-0.3c0.3-0.2,0.8-0.5,1.3-0.8c0.5-0.3,1-0.8,1.6-1.3c0.6-0.5,1.1-1.1,1.6-1.8
	c0.5-0.7,0.9-1.5,1.2-2.3c0.3-0.9,0.5-1.8,0.5-2.9V6.2h-6.3v-2c0-0.2,0.1-0.5,0.3-0.7c0.2-0.2,0.4-0.3,0.7-0.3H63z M74.8,23.9
	c0,0.5,0,0.9-0.1,1.2c-0.1,0.4-0.2,0.7-0.3,0.9c-0.2,0.3-0.4,0.5-0.7,0.6c-0.3,0.2-0.7,0.2-1.1,0.2h-1.7V12.5h-2.1v11.1
	c0,0.5,0,0.9-0.1,1.2c-0.1,0.4-0.2,0.7-0.3,1c-0.2,0.3-0.4,0.5-0.7,0.6c-0.3,0.2-0.7,0.2-1.1,0.2h-1.7V3.2c0-0.7,0.1-1.2,0.5-1.4
	c0.3-0.2,0.8-0.3,1.4-0.3h2v8.1h2.1V2.9c0-0.7,0.1-1.1,0.5-1.4c0.3-0.2,0.8-0.3,1.5-0.3h2V23.9z M90.4,2.3v12.5h-9.7
	c-1.1,0-1.9-0.3-2.3-0.9c-0.5-0.6-0.7-1.4-0.7-2.4V4c0-0.7,0.1-1.2,0.5-1.4c0.3-0.2,0.8-0.3,1.5-0.3h2v3.5h5V4
	c0-0.7,0.1-1.2,0.5-1.4c0.3-0.2,0.8-0.3,1.4-0.3H90.4z M86.5,11.9V8.7h-5v2.2c0,0.3,0,0.5,0.1,0.7c0.1,0.2,0.3,0.3,0.8,0.3H86.5z
	 M98.1,6.2h3.8v1.9c0,0.3-0.1,0.5-0.3,0.7c-0.2,0.2-0.4,0.3-0.7,0.3h-2.9V12c0,0.5,0,0.9-0.1,1.2c-0.1,0.4-0.2,0.7-0.3,1
	c-0.2,0.3-0.4,0.5-0.7,0.6C96.8,15,96.4,15,95.9,15H94V2.9c0-0.7,0.1-1.1,0.5-1.4c0.3-0.2,0.8-0.3,1.4-0.3h2.2V6.2z M85.4,24.1H98
	v1.9c0,0.3-0.1,0.5-0.3,0.7c-0.2,0.2-0.4,0.3-0.7,0.3H83.6c-1.1,0-1.9-0.3-2.3-0.8c-0.5-0.5-0.7-1.3-0.7-2.4v-2.6
	c0-0.2,0.1-0.5,0.3-0.7c0.2-0.2,0.4-0.3,0.7-0.3h12.1V19h-13v-1.8c0-0.2,0.1-0.5,0.3-0.7c0.2-0.2,0.4-0.3,0.7-0.3h16.2v5.8
	c0,0.3-0.1,0.5-0.3,0.6C97.2,22.9,97,23,96.8,23H84.6v0.4c0,0.3,0,0.5,0.1,0.6C84.8,24,85,24.1,85.4,24.1z M124.6,12.3
	c0,0.5,0,0.9-0.1,1.2c-0.1,0.4-0.2,0.7-0.3,0.9c-0.2,0.3-0.4,0.5-0.7,0.6c-0.3,0.2-0.7,0.2-1.1,0.2h-1.9v-1.5h-6
	c-0.6,0.5-1.3,0.8-2.1,1c-0.8,0.2-1.7,0.3-2.5,0.3c-1,0-1.9-0.1-2.7-0.4c-0.9-0.3-1.6-0.7-2.2-1.2c-0.6-0.5-1.1-1.1-1.5-1.9
	c-0.4-0.7-0.6-1.6-0.6-2.5c0-0.6,0.1-1.1,0.3-1.6c0.2-0.5,0.4-0.9,0.7-1.4h-1.9v-2c0-0.2,0.1-0.5,0.3-0.7c0.2-0.2,0.4-0.3,0.7-0.3
	h4.8V2.1c0-0.2,0-0.4,0.1-0.6c0-0.2,0.1-0.3,0.3-0.5c0.1-0.1,0.3-0.3,0.5-0.4c0.2-0.1,0.6-0.1,1-0.1h2.2v2.8h1.6
	c1.1,0,2-0.1,2.7-0.2c0.7-0.1,1.2-0.3,1.6-0.4v2.2c0,0.3-0.1,0.5-0.1,0.7c-0.1,0.2-0.3,0.3-0.4,0.4C117,5.9,116.8,6,116.5,6
	c-0.2,0.1-0.5,0.1-0.7,0.1c0.1,0.1,0.1,0.2,0.2,0.2c0.1,0.1,0.1,0.2,0.1,0.3h4.4V2.9c0-0.7,0.1-1.1,0.5-1.4c0.3-0.2,0.8-0.3,1.5-0.3
	h2.1V12.3z M124.4,16.3v10.6h-14.7c-0.6,0-1-0.1-1.3-0.3c-0.4-0.1-0.7-0.4-0.9-0.7c-0.2-0.3-0.4-0.7-0.4-1.1
	c-0.1-0.4-0.1-0.8-0.1-1.3v-5.9c0-0.3,0-0.6,0.1-0.8c0.1-0.2,0.2-0.3,0.4-0.4c0.1-0.1,0.3-0.1,0.6-0.1c0.2,0,0.5,0,0.9,0h2.1v2.4
	h9.3v-1c0-0.3,0-0.6,0.1-0.8c0.1-0.2,0.2-0.3,0.4-0.4c0.1-0.1,0.3-0.1,0.6-0.1c0.2,0,0.5,0,0.8,0H124.4z M109.9,12.2
	c0.9,0,1.5-0.3,2-0.8c0.5-0.5,0.7-1.3,0.7-2.2c0-0.9-0.2-1.6-0.7-2.1c-0.5-0.5-1.2-0.7-2-0.7c-0.9,0-1.6,0.3-2,0.7
	c-0.5,0.5-0.7,1.2-0.7,2.1c0,1,0.2,1.7,0.7,2.2C108.3,11.9,109,12.2,109.9,12.2z M120.3,24v-2.3H111V23c0,0.1,0,0.3,0,0.4
	c0,0.1,0,0.3,0.1,0.3c0,0.1,0.1,0.2,0.2,0.2c0.1,0.1,0.3,0.1,0.5,0.1H120.3z M116.6,10.9h3.9V9.5h-3.7
	C116.8,10,116.8,10.4,116.6,10.9z M141.6,12.5v1.9c0,0.3-0.1,0.5-0.2,0.7c-0.2,0.2-0.4,0.3-0.7,0.3h-10.2c-1.1,0-1.9-0.3-2.3-0.8
	c-0.5-0.5-0.7-1.3-0.7-2.4V8.3c0-0.2,0.1-0.4,0.3-0.7c0.2-0.2,0.4-0.3,0.7-0.3h7.8V5.1h-8.7V3.2c0-0.2,0.1-0.4,0.2-0.7
	c0.1-0.2,0.4-0.3,0.7-0.3h11.9v7.1c0,0.3-0.1,0.5-0.3,0.7c-0.2,0.2-0.4,0.3-0.7,0.3h-7.8v1.2c0,0.3,0,0.5,0.1,0.7
	c0.1,0.2,0.3,0.3,0.7,0.3H141.6z M148.9,13.2c0,0.5,0,0.9-0.1,1.2c-0.1,0.4-0.2,0.7-0.3,0.9c-0.2,0.3-0.4,0.5-0.7,0.6
	c-0.3,0.2-0.7,0.2-1.1,0.2h-1.9V12h-3.5v-2c0-0.2,0.1-0.5,0.3-0.7c0.2-0.2,0.4-0.3,0.7-0.3h2.6V7.4h-3.5v-2c0-0.2,0.1-0.5,0.3-0.7
	c0.2-0.2,0.4-0.3,0.7-0.3h2.6V2.9c0-0.7,0.1-1.1,0.5-1.4c0.3-0.2,0.8-0.3,1.5-0.3h2.2V13.2z M148.5,17.8v6.3c0,0.5,0,0.9-0.1,1.2
	c-0.1,0.4-0.2,0.7-0.3,1c-0.2,0.3-0.4,0.5-0.7,0.6c-0.3,0.1-0.7,0.2-1.1,0.2h-1.9v-6.4h-13.4v-2c0-0.3,0.1-0.5,0.3-0.7
	c0.2-0.2,0.4-0.3,0.6-0.3H148.5z M171.4,20.6l-4.8-4.6c-0.7,0.7-1.5,1.3-2.2,1.8c-0.8,0.6-1.6,1-2.3,1.4c-0.8,0.4-1.5,0.7-2.2,1
	c-0.7,0.3-1.3,0.5-1.9,0.7v-2.9c1.5-0.7,2.8-1.5,4-2.5c1.1-0.9,2-1.9,2.8-2.9c0.7-1,1.3-2,1.6-3c0.3-1,0.5-2,0.5-2.9V6.2h-8.1v-2
	c0-0.2,0.1-0.5,0.3-0.7c0.2-0.2,0.4-0.3,0.7-0.3H171v2.4c0,1.7-0.2,3.1-0.7,4.4c-0.5,1.3-1.1,2.5-1.8,3.6l4.9,4.8L171.4,20.6z
	 M179,1.2v22.7c0,0.5,0,0.9-0.1,1.2c-0.1,0.4-0.2,0.7-0.3,0.9c-0.2,0.3-0.4,0.5-0.7,0.6c-0.3,0.2-0.7,0.2-1.1,0.2h-1.9v-24
	c0-0.7,0.1-1.1,0.5-1.4c0.3-0.2,0.8-0.3,1.4-0.3H179z M190,1.5c1,0,1.9,0.1,2.8,0.3c0.9,0.2,1.6,0.6,2.3,1c0.7,0.4,1.2,0.9,1.6,1.5
	c0.4,0.6,0.6,1.3,0.6,2c0,0.8-0.2,1.5-0.6,2c-0.4,0.6-0.9,1.1-1.6,1.5c-0.7,0.4-1.5,0.7-2.3,0.9c-0.9,0.2-1.9,0.3-2.8,0.3
	c-1,0-2-0.1-2.8-0.3c-0.9-0.2-1.7-0.5-2.3-0.9c-0.7-0.4-1.2-0.9-1.6-1.5c-0.4-0.6-0.6-1.3-0.6-2c0-0.7,0.2-1.4,0.6-2
	c0.4-0.6,0.9-1.1,1.6-1.5c0.6-0.4,1.4-0.7,2.3-1C188,1.6,188.9,1.5,190,1.5z M190,8.2c0.8,0,1.5-0.2,2.1-0.5
	c0.6-0.3,0.9-0.8,0.9-1.4c0-0.6-0.3-1-0.9-1.4c-0.6-0.3-1.3-0.5-2.1-0.5c-0.9,0-1.6,0.2-2.1,0.5c-0.6,0.3-0.9,0.8-0.9,1.4
	c0,0.6,0.3,1.1,0.9,1.4C188.4,8.1,189.1,8.2,190,8.2z M204.2,1.2v16.9c0,0.5,0,0.8,0,1.1c0,0.3-0.1,0.6-0.2,0.9
	c-0.1,0.2-0.3,0.4-0.6,0.5c-0.3,0.1-0.7,0.2-1.1,0.2h-2.2v-2.2H195v-2c0-0.3,0.1-0.5,0.3-0.7c0.2-0.2,0.4-0.3,0.7-0.3h4.2V3.3
	c0-1.4,0.6-2.1,1.9-2.1H204.2z M198.8,11.9v2c0,0.3-0.1,0.5-0.3,0.7c-0.2,0.2-0.4,0.3-0.7,0.3h-6V16c0,0.5,0,0.9,0,1.2
	c0,0.3-0.1,0.6-0.2,0.8c-0.1,0.2-0.3,0.4-0.5,0.5c-0.3,0.1-0.6,0.2-1.1,0.2h-2.3v-3.8h-6.5v-2c0-0.3,0.1-0.5,0.3-0.7
	c0.2-0.2,0.4-0.3,0.7-0.3H198.8z M204.2,23.9v2c0,0.3-0.1,0.5-0.3,0.7c-0.2,0.2-0.4,0.3-0.7,0.3H190c-1.1,0-1.9-0.3-2.3-0.8
	c-0.5-0.5-0.7-1.3-0.7-2.4v-4h2.3c0.4,0,0.8,0.1,1,0.2c0.2,0.1,0.4,0.3,0.5,0.4c0.1,0.2,0.2,0.4,0.2,0.6c0,0.2,0,0.5,0,0.7V23
	c0,0.3,0.1,0.6,0.3,0.7c0.2,0.2,0.5,0.2,0.7,0.2H204.2z M227.8,8.1v2c0,0.3-0.1,0.5-0.3,0.7c-0.2,0.2-0.4,0.3-0.7,0.3h-17.3V9
	c0-0.3,0.1-0.5,0.3-0.7c0.2-0.2,0.4-0.3,0.7-0.3h1.9V4.9h-2.8v-2c0-0.3,0.1-0.5,0.3-0.7c0.2-0.2,0.4-0.3,0.7-0.3h17.3v2
	c0,0.3-0.1,0.5-0.3,0.7c-0.2,0.2-0.4,0.3-0.7,0.3H225v3.2H227.8z M216.4,8.1h4.6V4.9h-4.6V8.1z M231,12.1v2c0,0.3-0.1,0.5-0.3,0.7
	c-0.2,0.2-0.4,0.3-0.7,0.3h-23.8v-2c0-0.3,0.1-0.5,0.3-0.7c0.2-0.2,0.4-0.3,0.7-0.3H231z M214.4,24.2h13.6v1.8
	c0,0.3-0.1,0.5-0.3,0.7c-0.2,0.2-0.4,0.3-0.6,0.3h-14.2c-0.8,0-1.4-0.1-1.8-0.3c-0.5-0.1-0.8-0.4-1-0.7c-0.3-0.3-0.4-0.7-0.5-1.1
	c-0.1-0.4-0.1-0.9-0.1-1.5v-2.2c0-0.3,0.1-0.5,0.3-0.7c0.2-0.2,0.4-0.3,0.6-0.3h13.3v-1.3h-14.2v-1.8c0-0.3,0.1-0.5,0.3-0.7
	c0.2-0.2,0.4-0.3,0.6-0.3h17.4V22c0,0.2-0.1,0.4-0.3,0.6c-0.2,0.2-0.4,0.3-0.6,0.3h-13.3c0,0.1,0,0.3,0,0.4c0,0.2,0,0.3,0.1,0.4
	c0,0.1,0.1,0.3,0.2,0.3C214,24.1,214.1,24.2,214.4,24.2z M243.3,12.5v1.9c0,0.3-0.1,0.5-0.3,0.7c-0.2,0.2-0.4,0.3-0.7,0.3h-6.8
	c-1.1,0-1.9-0.3-2.3-0.8c-0.5-0.5-0.7-1.3-0.7-2.4V8.3c0-0.2,0.1-0.5,0.3-0.7c0.2-0.2,0.4-0.3,0.6-0.3h5.6V5.1h-6.5V3.2
	c0-0.3,0.1-0.5,0.3-0.7c0.2-0.2,0.4-0.3,0.7-0.3h9.5v7.2c0,0.2-0.1,0.4-0.3,0.6c-0.2,0.2-0.4,0.3-0.6,0.3h-5.6v1.3
	c0,0.4,0.1,0.7,0.2,0.8c0.1,0.1,0.3,0.2,0.6,0.2H243.3z M254.8,13.6c0,0.5,0,0.9-0.1,1.2c-0.1,0.4-0.2,0.7-0.3,0.9
	c-0.2,0.3-0.4,0.5-0.7,0.6c-0.3,0.2-0.7,0.2-1.1,0.2h-1.7V9.4h-2.1v3.4c0,0.5,0,0.9-0.1,1.2c-0.1,0.4-0.2,0.7-0.3,0.9
	c-0.2,0.3-0.4,0.5-0.7,0.6c-0.3,0.2-0.7,0.2-1.1,0.2h-1.7V3.1c0-0.7,0.1-1.2,0.5-1.4c0.3-0.2,0.8-0.3,1.4-0.3h2v5.1h2.1V2.9
	c0-0.7,0.1-1.1,0.5-1.4c0.3-0.2,0.8-0.3,1.5-0.3h2V13.6z M248.2,16.9v1.5c0,0.7-0.2,1.4-0.5,2.1l7.5,4l-1.6,2.4l-7.7-4.1
	c-1,0.9-2.2,1.7-3.8,2.4c-1.6,0.7-3.6,1.3-6,1.7v-2.6c0.9-0.3,1.8-0.7,2.7-1.1c0.9-0.4,1.7-0.9,2.5-1.5c0.7-0.5,1.3-1.1,1.8-1.6
	c0.5-0.6,0.7-1.1,0.7-1.7v-0.4c0-0.3,0-0.5,0.1-0.7c0.1-0.2,0.2-0.3,0.4-0.4c0.2-0.1,0.4-0.1,0.6-0.1c0.2,0,0.5,0,0.7,0H248.2z
	 M281.6,13.3v2c0,0.3-0.1,0.5-0.3,0.7c-0.2,0.2-0.4,0.3-0.7,0.3h-23.8v-2c0-0.3,0.1-0.5,0.3-0.7c0.2-0.1,0.4-0.2,0.7-0.2h9.4v-1.7
	h-7v-2c0-0.3,0.1-0.5,0.3-0.7c0.2-0.2,0.4-0.3,0.7-0.3h1.9V4.9h-2.8v-2c0-0.3,0.1-0.5,0.3-0.7c0.2-0.2,0.4-0.3,0.7-0.3h17.3v2
	c0,0.3-0.1,0.5-0.3,0.7c-0.2,0.2-0.4,0.3-0.7,0.3h-1.9v3.8h2.8v2c0,0.3-0.1,0.5-0.3,0.7c-0.2,0.2-0.4,0.3-0.7,0.3h-6.2v1.7H281.6z
	 M278.6,17.9v8c0,0.3-0.1,0.5-0.2,0.7c-0.2,0.2-0.4,0.3-0.7,0.3h-14.4c-1.1,0-1.9-0.3-2.3-0.8c-0.5-0.5-0.7-1.3-0.7-2.4v-4.8
	c0-0.2,0.1-0.5,0.3-0.7c0.2-0.2,0.4-0.3,0.7-0.3H278.6z M264.3,23c0,0.3,0.1,0.5,0.2,0.7c0.1,0.2,0.3,0.3,0.6,0.3h9.4v-3.2h-10.2V23
	z M267,8.6h4.6V4.9H267V8.6z"/>
<path class="st1" d="M21.9,52.2c0,0.5,0,0.9-0.1,1.2c-0.1,0.4-0.2,0.7-0.3,1c-0.2,0.3-0.4,0.5-0.7,0.6c-0.3,0.1-0.7,0.2-1.1,0.2
	h-1.9v-6.6H3.6v-2c0-0.2,0.1-0.4,0.3-0.7c0.1-0.2,0.3-0.3,0.6-0.3H11v-3H0.7v-2c0-0.2,0.1-0.5,0.3-0.7c0.2-0.2,0.4-0.3,0.7-0.3h23.9
	v2c0,0.2-0.1,0.5-0.3,0.7c-0.2,0.2-0.4,0.3-0.7,0.3h-9.4v3h6.8V52.2z M22,32c0,0.4,0,0.9,0,1.5c0,0.6,0,1.2-0.1,1.9
	c-0.1,0.7-0.1,1.3-0.2,1.9c-0.1,0.6-0.3,1.1-0.5,1.5h-3.9c0.1-0.2,0.2-0.5,0.3-0.9c0.1-0.3,0.1-0.7,0.2-1.1c0-0.4,0.1-0.7,0.1-1.1
	c0-0.3,0-0.7,0-0.9v-1.9H3.7v-2.2c0-0.2,0.1-0.4,0.3-0.5c0.2-0.1,0.4-0.2,0.6-0.2H22V32z M37.2,48.6l-4.2-4.3
	c-0.7,0.7-1.4,1.3-2.1,1.9c-0.7,0.5-1.4,1-2,1.3c-0.7,0.4-1.2,0.7-1.7,0.9c-0.5,0.2-0.9,0.4-1.1,0.5v-2.9c2.4-1.6,4.2-3.4,5.4-5.3
	c1.2-1.9,1.8-3.8,1.8-5.7v-0.7h-6.3v-2c0-0.2,0.1-0.5,0.3-0.7c0.2-0.2,0.4-0.3,0.7-0.3h9.4v3c0,1.6-0.2,3-0.7,4.3
	C36.3,39.8,35.7,41,35,42l4.3,4.4L37.2,48.6z M43.7,29.5v22.2c0,0.5,0,0.9-0.1,1.2c-0.1,0.4-0.2,0.7-0.3,1c-0.2,0.3-0.4,0.5-0.7,0.6
	c-0.3,0.2-0.7,0.2-1.1,0.2h-1.7V40.7h-2.5v-2c0-0.3,0.1-0.5,0.3-0.7c0.2-0.1,0.4-0.2,0.7-0.3h1.6v-6.6c0-0.7,0.1-1.2,0.5-1.4
	c0.3-0.2,0.8-0.3,1.5-0.3H43.7z M49.2,29.2v22.7c0,0.5,0,0.9-0.1,1.2c-0.1,0.4-0.2,0.7-0.3,0.9c-0.2,0.3-0.4,0.5-0.7,0.6
	c-0.3,0.2-0.7,0.2-1.1,0.2h-1.7v-24c0-0.7,0.1-1.1,0.5-1.4c0.3-0.2,0.8-0.3,1.4-0.3H49.2z M63,31.3v3.7c0,2-0.3,3.7-0.8,5.2
	c-0.6,1.5-1.4,2.8-2.3,4c-1,1.1-2.1,2.1-3.4,2.9c-1.3,0.8-2.8,1.4-4.3,1.9v-2.9c0.1,0,0.3-0.1,0.7-0.3c0.3-0.2,0.8-0.5,1.3-0.8
	c0.5-0.3,1-0.8,1.6-1.3c0.6-0.5,1.1-1.1,1.6-1.8c0.5-0.7,0.9-1.5,1.2-2.3c0.3-0.9,0.5-1.8,0.5-2.9v-2.3h-6.3v-2
	c0-0.2,0.1-0.5,0.3-0.7c0.2-0.2,0.4-0.3,0.7-0.3H63z M74.8,51.9c0,0.5,0,0.9-0.1,1.2c-0.1,0.4-0.2,0.7-0.3,0.9
	c-0.2,0.3-0.4,0.5-0.7,0.6c-0.3,0.2-0.7,0.2-1.1,0.2h-1.7V40.5h-2.1v11.1c0,0.5,0,0.9-0.1,1.2c-0.1,0.4-0.2,0.7-0.3,1
	c-0.2,0.3-0.4,0.5-0.7,0.6c-0.3,0.2-0.7,0.2-1.1,0.2h-1.7V31.2c0-0.7,0.1-1.2,0.5-1.4c0.3-0.2,0.8-0.3,1.4-0.3h2v8.1h2.1v-6.7
	c0-0.7,0.1-1.1,0.5-1.4c0.3-0.2,0.8-0.3,1.5-0.3h2V51.9z M90.4,30.3v12.5h-9.7c-1.1,0-1.9-0.3-2.3-0.9c-0.5-0.6-0.7-1.4-0.7-2.4V32
	c0-0.7,0.1-1.2,0.5-1.4c0.3-0.2,0.8-0.3,1.5-0.3h2v3.5h5V32c0-0.7,0.1-1.2,0.5-1.4c0.3-0.2,0.8-0.3,1.4-0.3H90.4z M86.5,39.9v-3.2
	h-5v2.2c0,0.3,0,0.5,0.1,0.7c0.1,0.2,0.3,0.3,0.8,0.3H86.5z M98.1,34.2h3.8v1.9c0,0.3-0.1,0.5-0.3,0.7c-0.2,0.2-0.4,0.3-0.7,0.3
	h-2.9V40c0,0.5,0,0.9-0.1,1.2c-0.1,0.4-0.2,0.7-0.3,1c-0.2,0.3-0.4,0.5-0.7,0.6C96.8,43,96.4,43,95.9,43H94V30.9
	c0-0.7,0.1-1.1,0.5-1.4c0.3-0.2,0.8-0.3,1.4-0.3h2.2V34.2z M85.4,52.1H98v1.9c0,0.3-0.1,0.5-0.3,0.7c-0.2,0.2-0.4,0.3-0.7,0.3H83.6
	c-1.1,0-1.9-0.3-2.3-0.8c-0.5-0.5-0.7-1.3-0.7-2.4v-2.6c0-0.2,0.1-0.5,0.3-0.7c0.2-0.2,0.4-0.3,0.7-0.3h12.1V47h-13v-1.8
	c0-0.2,0.1-0.5,0.3-0.7c0.2-0.2,0.4-0.3,0.7-0.3h16.2v5.8c0,0.3-0.1,0.5-0.3,0.6C97.2,50.9,97,51,96.8,51H84.6v0.4
	c0,0.3,0,0.5,0.1,0.6C84.8,52,85,52.1,85.4,52.1z M124.6,40.3c0,0.5,0,0.9-0.1,1.2c-0.1,0.4-0.2,0.7-0.3,0.9
	c-0.2,0.3-0.4,0.5-0.7,0.6c-0.3,0.2-0.7,0.2-1.1,0.2h-1.9v-1.5h-6c-0.6,0.5-1.3,0.8-2.1,1c-0.8,0.2-1.7,0.3-2.5,0.3
	c-1,0-1.9-0.1-2.7-0.4c-0.9-0.3-1.6-0.7-2.2-1.2c-0.6-0.5-1.1-1.1-1.5-1.9c-0.4-0.7-0.6-1.6-0.6-2.5c0-0.6,0.1-1.1,0.3-1.6
	c0.2-0.5,0.4-0.9,0.7-1.4h-1.9v-2c0-0.2,0.1-0.5,0.3-0.7c0.2-0.2,0.4-0.3,0.7-0.3h4.8v-1.1c0-0.2,0-0.4,0.1-0.6
	c0-0.2,0.1-0.3,0.3-0.5c0.1-0.1,0.3-0.3,0.5-0.4c0.2-0.1,0.6-0.1,1-0.1h2.2v2.8h1.6c1.1,0,2-0.1,2.7-0.2c0.7-0.1,1.2-0.3,1.6-0.4
	v2.2c0,0.3-0.1,0.5-0.1,0.7c-0.1,0.2-0.3,0.3-0.4,0.4c-0.2,0.1-0.4,0.2-0.6,0.2c-0.2,0.1-0.5,0.1-0.7,0.1c0.1,0.1,0.1,0.2,0.2,0.2
	c0.1,0.1,0.1,0.2,0.1,0.3h4.4v-3.7c0-0.7,0.1-1.1,0.5-1.4c0.3-0.2,0.8-0.3,1.5-0.3h2.1V40.3z M124.4,44.3v10.6h-14.7
	c-0.6,0-1-0.1-1.3-0.3c-0.4-0.1-0.7-0.4-0.9-0.7c-0.2-0.3-0.4-0.7-0.4-1.1c-0.1-0.4-0.1-0.8-0.1-1.3v-5.9c0-0.3,0-0.6,0.1-0.8
	c0.1-0.2,0.2-0.3,0.4-0.4c0.1-0.1,0.3-0.1,0.6-0.1c0.2,0,0.5,0,0.9,0h2.1v2.4h9.3v-1c0-0.3,0-0.6,0.1-0.8c0.1-0.2,0.2-0.3,0.4-0.4
	c0.1-0.1,0.3-0.1,0.6-0.1c0.2,0,0.5,0,0.8,0H124.4z M109.9,40.2c0.9,0,1.5-0.3,2-0.8c0.5-0.5,0.7-1.3,0.7-2.2c0-0.9-0.2-1.6-0.7-2.1
	c-0.5-0.5-1.2-0.7-2-0.7c-0.9,0-1.6,0.3-2,0.7c-0.5,0.5-0.7,1.2-0.7,2.1c0,1,0.2,1.7,0.7,2.2C108.3,39.9,109,40.2,109.9,40.2z
	 M120.3,52v-2.3H111V51c0,0.1,0,0.3,0,0.4c0,0.1,0,0.3,0.1,0.3c0,0.1,0.1,0.2,0.2,0.2c0.1,0.1,0.3,0.1,0.5,0.1H120.3z M116.6,38.9
	h3.9v-1.3h-3.7C116.8,38,116.8,38.4,116.6,38.9z M141.6,40.5v1.9c0,0.3-0.1,0.5-0.2,0.7c-0.2,0.2-0.4,0.3-0.7,0.3h-10.2
	c-1.1,0-1.9-0.3-2.3-0.8c-0.5-0.5-0.7-1.3-0.7-2.4v-3.8c0-0.2,0.1-0.4,0.3-0.7c0.2-0.2,0.4-0.3,0.7-0.3h7.8v-2.3h-8.7v-1.9
	c0-0.2,0.1-0.4,0.2-0.7c0.1-0.2,0.4-0.3,0.7-0.3h11.9v7.1c0,0.3-0.1,0.5-0.3,0.7c-0.2,0.2-0.4,0.3-0.7,0.3h-7.8v1.2
	c0,0.3,0,0.5,0.1,0.7c0.1,0.2,0.3,0.3,0.7,0.3H141.6z M148.9,41.2c0,0.5,0,0.9-0.1,1.2c-0.1,0.4-0.2,0.7-0.3,0.9
	c-0.2,0.3-0.4,0.5-0.7,0.6c-0.3,0.2-0.7,0.2-1.1,0.2h-1.9V40h-3.5v-2c0-0.2,0.1-0.5,0.3-0.7c0.2-0.2,0.4-0.3,0.7-0.3h2.6v-1.6h-3.5
	v-2c0-0.2,0.1-0.5,0.3-0.7c0.2-0.2,0.4-0.3,0.7-0.3h2.6v-1.6c0-0.7,0.1-1.1,0.5-1.4c0.3-0.2,0.8-0.3,1.5-0.3h2.2V41.2z M148.5,45.8
	v6.3c0,0.5,0,0.9-0.1,1.2c-0.1,0.4-0.2,0.7-0.3,1c-0.2,0.3-0.4,0.5-0.7,0.6c-0.3,0.1-0.7,0.2-1.1,0.2h-1.9v-6.4h-13.4v-2
	c0-0.3,0.1-0.5,0.3-0.7c0.2-0.2,0.4-0.3,0.6-0.3H148.5z M171.4,48.6l-4.8-4.6c-0.7,0.7-1.5,1.3-2.2,1.8c-0.8,0.6-1.6,1-2.3,1.4
	c-0.8,0.4-1.5,0.7-2.2,1c-0.7,0.3-1.3,0.5-1.9,0.7v-2.9c1.5-0.7,2.8-1.5,4-2.5c1.1-0.9,2-1.9,2.8-2.9c0.7-1,1.3-2,1.6-3
	c0.3-1,0.5-2,0.5-2.9v-0.4h-8.1v-2c0-0.2,0.1-0.5,0.3-0.7c0.2-0.2,0.4-0.3,0.7-0.3H171v2.4c0,1.7-0.2,3.1-0.7,4.4
	c-0.5,1.3-1.1,2.5-1.8,3.6l4.9,4.8L171.4,48.6z M179,29.2v22.7c0,0.5,0,0.9-0.1,1.2c-0.1,0.4-0.2,0.7-0.3,0.9
	c-0.2,0.3-0.4,0.5-0.7,0.6c-0.3,0.2-0.7,0.2-1.1,0.2h-1.9v-24c0-0.7,0.1-1.1,0.5-1.4c0.3-0.2,0.8-0.3,1.4-0.3H179z M190,29.5
	c1,0,1.9,0.1,2.8,0.3c0.9,0.2,1.6,0.6,2.3,1c0.7,0.4,1.2,0.9,1.6,1.5c0.4,0.6,0.6,1.3,0.6,2c0,0.8-0.2,1.5-0.6,2
	c-0.4,0.6-0.9,1.1-1.6,1.5c-0.7,0.4-1.5,0.7-2.3,0.9c-0.9,0.2-1.9,0.3-2.8,0.3c-1,0-2-0.1-2.8-0.3c-0.9-0.2-1.7-0.5-2.3-0.9
	c-0.7-0.4-1.2-0.9-1.6-1.5c-0.4-0.6-0.6-1.3-0.6-2c0-0.7,0.2-1.4,0.6-2c0.4-0.6,0.9-1.1,1.6-1.5c0.6-0.4,1.4-0.7,2.3-1
	C188,29.6,188.9,29.5,190,29.5z M190,36.2c0.8,0,1.5-0.2,2.1-0.5c0.6-0.3,0.9-0.8,0.9-1.4c0-0.6-0.3-1-0.9-1.4
	c-0.6-0.3-1.3-0.5-2.1-0.5c-0.9,0-1.6,0.2-2.1,0.5c-0.6,0.3-0.9,0.8-0.9,1.4c0,0.6,0.3,1.1,0.9,1.4C188.4,36.1,189.1,36.2,190,36.2z
	 M204.2,29.2v16.9c0,0.5,0,0.8,0,1.1c0,0.3-0.1,0.6-0.2,0.9c-0.1,0.2-0.3,0.4-0.6,0.5c-0.3,0.1-0.7,0.2-1.1,0.2h-2.2v-2.2H195v-2
	c0-0.3,0.1-0.5,0.3-0.7c0.2-0.2,0.4-0.3,0.7-0.3h4.2V31.3c0-1.4,0.6-2.1,1.9-2.1H204.2z M198.8,39.9v2c0,0.3-0.1,0.5-0.3,0.7
	c-0.2,0.2-0.4,0.3-0.7,0.3h-6V44c0,0.5,0,0.9,0,1.2c0,0.3-0.1,0.6-0.2,0.8c-0.1,0.2-0.3,0.4-0.5,0.5c-0.3,0.1-0.6,0.2-1.1,0.2h-2.3
	v-3.8h-6.5v-2c0-0.3,0.1-0.5,0.3-0.7c0.2-0.2,0.4-0.3,0.7-0.3H198.8z M204.2,51.9v2c0,0.3-0.1,0.5-0.3,0.7c-0.2,0.2-0.4,0.3-0.7,0.3
	H190c-1.1,0-1.9-0.3-2.3-0.8c-0.5-0.5-0.7-1.3-0.7-2.4v-4h2.3c0.4,0,0.8,0.1,1,0.2c0.2,0.1,0.4,0.3,0.5,0.4c0.1,0.2,0.2,0.4,0.2,0.6
	c0,0.2,0,0.5,0,0.7V51c0,0.3,0.1,0.6,0.3,0.7c0.2,0.2,0.5,0.2,0.7,0.2H204.2z M227.8,36.1v2c0,0.3-0.1,0.5-0.3,0.7
	c-0.2,0.2-0.4,0.3-0.7,0.3h-17.3v-2c0-0.3,0.1-0.5,0.3-0.7c0.2-0.2,0.4-0.3,0.7-0.3h1.9v-3.2h-2.8v-2c0-0.3,0.1-0.5,0.3-0.7
	c0.2-0.2,0.4-0.3,0.7-0.3h17.3v2c0,0.3-0.1,0.5-0.3,0.7c-0.2,0.2-0.4,0.3-0.7,0.3H225v3.2H227.8z M216.4,36.1h4.6v-3.2h-4.6V36.1z
	 M231,40.1v2c0,0.3-0.1,0.5-0.3,0.7c-0.2,0.2-0.4,0.3-0.7,0.3h-23.8v-2c0-0.3,0.1-0.5,0.3-0.7c0.2-0.2,0.4-0.3,0.7-0.3H231z
	 M214.4,52.2h13.6v1.8c0,0.3-0.1,0.5-0.3,0.7c-0.2,0.2-0.4,0.3-0.6,0.3h-14.2c-0.8,0-1.4-0.1-1.8-0.3c-0.5-0.1-0.8-0.4-1-0.7
	c-0.3-0.3-0.4-0.7-0.5-1.1c-0.1-0.4-0.1-0.9-0.1-1.5v-2.2c0-0.3,0.1-0.5,0.3-0.7c0.2-0.2,0.4-0.3,0.6-0.3h13.3v-1.3h-14.2v-1.8
	c0-0.3,0.1-0.5,0.3-0.7c0.2-0.2,0.4-0.3,0.6-0.3h17.4V50c0,0.2-0.1,0.4-0.3,0.6c-0.2,0.2-0.4,0.3-0.6,0.3h-13.3c0,0.1,0,0.3,0,0.4
	c0,0.2,0,0.3,0.1,0.4c0,0.1,0.1,0.3,0.2,0.3C214,52.1,214.1,52.2,214.4,52.2z M243.3,40.5v1.9c0,0.3-0.1,0.5-0.3,0.7
	c-0.2,0.2-0.4,0.3-0.7,0.3h-6.8c-1.1,0-1.9-0.3-2.3-0.8c-0.5-0.5-0.7-1.3-0.7-2.4v-3.9c0-0.2,0.1-0.5,0.3-0.7
	c0.2-0.2,0.4-0.3,0.6-0.3h5.6v-2.3h-6.5v-1.9c0-0.3,0.1-0.5,0.3-0.7c0.2-0.2,0.4-0.3,0.7-0.3h9.5v7.2c0,0.2-0.1,0.4-0.3,0.6
	c-0.2,0.2-0.4,0.3-0.6,0.3h-5.6v1.3c0,0.4,0.1,0.7,0.2,0.8c0.1,0.1,0.3,0.2,0.6,0.2H243.3z M254.8,41.6c0,0.5,0,0.9-0.1,1.2
	c-0.1,0.4-0.2,0.7-0.3,0.9c-0.2,0.3-0.4,0.5-0.7,0.6c-0.3,0.2-0.7,0.2-1.1,0.2h-1.7v-7.2h-2.1v3.4c0,0.5,0,0.9-0.1,1.2
	c-0.1,0.4-0.2,0.7-0.3,0.9c-0.2,0.3-0.4,0.5-0.7,0.6c-0.3,0.2-0.7,0.2-1.1,0.2h-1.7V31.1c0-0.7,0.1-1.2,0.5-1.4
	c0.3-0.2,0.8-0.3,1.4-0.3h2v5.1h2.1v-3.6c0-0.7,0.1-1.1,0.5-1.4c0.3-0.2,0.8-0.3,1.5-0.3h2V41.6z M248.2,44.9v1.5
	c0,0.7-0.2,1.4-0.5,2.1l7.5,4l-1.6,2.4l-7.7-4.1c-1,0.9-2.2,1.7-3.8,2.4c-1.6,0.7-3.6,1.3-6,1.7v-2.6c0.9-0.3,1.8-0.7,2.7-1.1
	c0.9-0.4,1.7-0.9,2.5-1.5c0.7-0.5,1.3-1.1,1.8-1.6c0.5-0.6,0.7-1.1,0.7-1.7v-0.4c0-0.3,0-0.5,0.1-0.7c0.1-0.2,0.2-0.3,0.4-0.4
	c0.2-0.1,0.4-0.1,0.6-0.1c0.2,0,0.5,0,0.7,0H248.2z M281.6,41.3v2c0,0.3-0.1,0.5-0.3,0.7c-0.2,0.2-0.4,0.3-0.7,0.3h-23.8v-2
	c0-0.3,0.1-0.5,0.3-0.7c0.2-0.1,0.4-0.2,0.7-0.2h9.4v-1.7h-7v-2c0-0.3,0.1-0.5,0.3-0.7c0.2-0.2,0.4-0.3,0.7-0.3h1.9v-3.8h-2.8v-2
	c0-0.3,0.1-0.5,0.3-0.7c0.2-0.2,0.4-0.3,0.7-0.3h17.3v2c0,0.3-0.1,0.5-0.3,0.7c-0.2,0.2-0.4,0.3-0.7,0.3h-1.9v3.8h2.8v2
	c0,0.3-0.1,0.5-0.3,0.7c-0.2,0.2-0.4,0.3-0.7,0.3h-6.2v1.7H281.6z M278.6,45.9v8c0,0.3-0.1,0.5-0.2,0.7c-0.2,0.2-0.4,0.3-0.7,0.3
	h-14.4c-1.1,0-1.9-0.3-2.3-0.8c-0.5-0.5-0.7-1.3-0.7-2.4v-4.8c0-0.2,0.1-0.5,0.3-0.7c0.2-0.2,0.4-0.3,0.7-0.3H278.6z M264.3,51
	c0,0.3,0.1,0.5,0.2,0.7c0.1,0.2,0.3,0.3,0.6,0.3h9.4v-3.2h-10.2V51z M267,36.6h4.6v-3.8H267V36.6z"/>
</svg>
